<svg width="580" height="281" viewBox="0 0 580 281" fill="none" xmlns="http://www.w3.org/2000/svg">
<path fill-rule="evenodd" clip-rule="evenodd" d="M61.1088 105.105C60.3255 103.989 59.8613 102.601 59.8613 101.098C59.8613 97.411 62.6508 94.4224 66.0916 94.4224C69.5324 94.4224 72.3219 97.411 72.3219 101.098C72.3219 102.602 71.8577 103.989 71.0744 105.105C70.9862 105.271 66.8183 113.113 66.0916 113.113C65.3649 113.113 61.1971 105.272 61.1088 105.105ZM66.0916 103.768C67.8121 103.768 69.2067 102.373 69.2067 100.653C69.2067 98.9321 67.8121 97.5374 66.0916 97.5374C64.3711 97.5374 62.9765 98.9321 62.9765 100.653C62.9765 102.373 64.3711 103.768 66.0916 103.768Z" fill="#707070"/>
<path fill-rule="evenodd" clip-rule="evenodd" d="M89.5102 137.349C88.7269 136.232 88.2627 134.845 88.2627 133.341C88.2627 129.654 91.0522 126.666 94.493 126.666C97.9337 126.666 100.723 129.654 100.723 133.341C100.723 134.845 100.259 136.233 99.4757 137.349C99.3876 137.515 95.2196 145.356 94.493 145.356C93.7663 145.356 89.5985 137.515 89.5102 137.349ZM94.493 136.011C96.2134 136.011 97.6081 134.616 97.6081 132.896C97.6081 131.175 96.2134 129.781 94.493 129.781C92.7725 129.781 91.3778 131.175 91.3778 132.896C91.3778 134.616 92.7725 136.011 94.493 136.011Z" fill="#707070"/>
<path fill-rule="evenodd" clip-rule="evenodd" d="M306.481 176.999C305.698 175.883 305.233 174.495 305.233 172.991C305.233 169.304 308.023 166.316 311.464 166.316C314.904 166.316 317.694 169.304 317.694 172.991C317.694 174.495 317.23 175.883 316.446 176.999C316.358 177.165 312.19 185.007 311.464 185.007C310.737 185.007 306.569 177.165 306.481 176.999ZM311.464 175.661C313.184 175.661 314.579 174.266 314.579 172.546C314.579 170.825 313.184 169.431 311.464 169.431C309.743 169.431 308.349 170.825 308.349 172.546C308.349 174.266 309.743 175.661 311.464 175.661Z" fill="#707070"/>
<path fill-rule="evenodd" clip-rule="evenodd" d="M365.564 145.421C364.781 144.305 364.316 142.917 364.316 141.413C364.316 137.726 367.106 134.738 370.547 134.738C373.987 134.738 376.777 137.726 376.777 141.413C376.777 142.917 376.313 144.305 375.529 145.421C375.441 145.587 371.273 153.429 370.547 153.429C369.82 153.429 365.652 145.587 365.564 145.421ZM370.547 144.083C372.267 144.083 373.662 142.688 373.662 140.968C373.662 139.248 372.267 137.853 370.547 137.853C368.826 137.853 367.432 139.248 367.432 140.968C367.432 142.688 368.826 144.083 370.547 144.083Z" fill="#707070"/>
<path fill-rule="evenodd" clip-rule="evenodd" d="M516.638 43.7172C515.855 42.6011 515.391 41.2133 515.391 39.7095C515.391 36.0228 518.18 33.0342 521.621 33.0342C525.062 33.0342 527.851 36.0228 527.851 39.7095C527.851 41.2135 527.387 42.6012 526.604 43.7172C526.515 43.8833 522.348 51.725 521.621 51.725C520.894 51.725 516.726 43.8834 516.638 43.7172ZM521.621 42.3795C523.341 42.3795 524.736 40.9848 524.736 39.2644C524.736 37.5439 523.341 36.1492 521.621 36.1492C519.9 36.1492 518.506 37.5439 518.506 39.2644C518.506 40.9848 519.9 42.3795 521.621 42.3795Z" fill="#707070"/>
<path fill-rule="evenodd" clip-rule="evenodd" d="M466.193 159.534C465.41 158.418 464.946 157.03 464.946 155.526C464.946 151.84 467.735 148.851 471.176 148.851C474.617 148.851 477.406 151.84 477.406 155.526C477.406 157.03 476.942 158.418 476.159 159.534C476.071 159.7 471.903 167.542 471.176 167.542C470.449 167.542 466.282 159.7 466.193 159.534ZM471.176 158.196C472.897 158.196 474.291 156.802 474.291 155.081C474.291 153.361 472.897 151.966 471.176 151.966C469.456 151.966 468.061 153.361 468.061 155.081C468.061 156.802 469.456 158.196 471.176 158.196Z" fill="#707070"/>
<path fill-rule="evenodd" clip-rule="evenodd" d="M478.655 138.691C477.871 137.575 477.407 136.187 477.407 134.683C477.407 130.997 480.197 128.008 483.638 128.008C487.078 128.008 489.868 130.997 489.868 134.683C489.868 136.187 489.404 137.575 488.62 138.691C488.532 138.857 484.364 146.699 483.638 146.699C482.911 146.699 478.743 138.857 478.655 138.691ZM483.638 137.353C485.358 137.353 486.753 135.959 486.753 134.238C486.753 132.518 485.358 131.123 483.638 131.123C481.917 131.123 480.522 132.518 480.522 134.238C480.522 135.959 481.917 137.353 483.638 137.353Z" fill="#707070"/>
<path fill-rule="evenodd" clip-rule="evenodd" d="M564.056 176.999C563.273 175.883 562.809 174.495 562.809 172.991C562.809 169.304 565.598 166.316 569.039 166.316C572.48 166.316 575.269 169.304 575.269 172.991C575.269 174.495 574.805 175.883 574.022 176.999C573.933 177.165 569.766 185.007 569.039 185.007C568.312 185.007 564.144 177.165 564.056 176.999ZM569.039 175.661C570.759 175.661 572.154 174.266 572.154 172.546C572.154 170.825 570.759 169.431 569.039 169.431C567.318 169.431 565.924 170.825 565.924 172.546C565.924 174.266 567.318 175.661 569.039 175.661Z" fill="#707070"/>
<path fill-rule="evenodd" clip-rule="evenodd" d="M557.826 205.035C557.043 203.919 556.579 202.531 556.579 201.027C556.579 197.341 559.368 194.352 562.809 194.352C566.25 194.352 569.039 197.341 569.039 201.027C569.039 202.531 568.575 203.919 567.792 205.035C567.703 205.201 563.536 213.043 562.809 213.043C562.082 213.043 557.914 205.201 557.826 205.035ZM562.809 203.697C564.529 203.697 565.924 202.303 565.924 200.582C565.924 198.862 564.529 197.467 562.809 197.467C561.088 197.467 559.694 198.862 559.694 200.582C559.694 202.303 561.088 203.697 562.809 203.697Z" fill="#707070"/>
<path fill-rule="evenodd" clip-rule="evenodd" d="M529.1 167.653C528.316 166.537 527.852 165.149 527.852 163.646C527.852 159.959 530.642 156.97 534.082 156.97C537.523 156.97 540.313 159.959 540.313 163.646C540.313 165.149 539.848 166.537 539.065 167.653C538.977 167.819 534.809 175.661 534.082 175.661C533.356 175.661 529.188 167.819 529.1 167.653ZM534.082 166.316C535.803 166.316 537.197 164.921 537.197 163.2C537.197 161.48 535.803 160.085 534.082 160.085C532.362 160.085 530.967 161.48 530.967 163.2C530.967 164.921 532.362 166.316 534.082 166.316Z" fill="#707070"/>
<path fill-rule="evenodd" clip-rule="evenodd" d="M383.288 195.689C382.504 194.573 382.04 193.185 382.04 191.682C382.04 187.995 384.83 185.006 388.27 185.006C391.711 185.006 394.501 187.995 394.501 191.682C394.501 193.186 394.036 194.573 393.253 195.689C393.165 195.855 388.997 203.697 388.27 203.697C387.544 203.697 383.376 195.856 383.288 195.689ZM388.27 194.352C389.991 194.352 391.385 192.957 391.385 191.237C391.385 189.516 389.991 188.121 388.27 188.121C386.55 188.121 385.155 189.516 385.155 191.237C385.155 192.957 386.55 194.352 388.27 194.352Z" fill="#707070"/>
<path fill-rule="evenodd" clip-rule="evenodd" d="M378.024 219.344C377.241 218.228 376.776 216.84 376.776 215.336C376.776 211.649 379.566 208.661 383.007 208.661C386.447 208.661 389.237 211.649 389.237 215.336C389.237 216.84 388.773 218.228 387.989 219.344C387.901 219.51 383.733 227.351 383.007 227.351C382.28 227.351 378.112 219.51 378.024 219.344ZM383.007 218.006C384.727 218.006 386.122 216.611 386.122 214.891C386.122 213.17 384.727 211.776 383.007 211.776C381.286 211.776 379.892 213.17 379.892 214.891C379.892 216.611 381.286 218.006 383.007 218.006Z" fill="#707070"/>
<path fill-rule="evenodd" clip-rule="evenodd" d="M349.874 202.805C349.091 201.689 348.627 200.301 348.627 198.797C348.627 195.111 351.416 192.122 354.857 192.122C358.298 192.122 361.088 195.111 361.088 198.797C361.088 200.301 360.623 201.689 359.84 202.805C359.752 202.971 355.584 210.813 354.857 210.813C354.131 210.813 349.963 202.971 349.874 202.805ZM354.857 201.467C356.578 201.467 357.972 200.073 357.972 198.352C357.972 196.632 356.578 195.237 354.857 195.237C353.137 195.237 351.742 196.632 351.742 198.352C351.742 200.073 353.137 201.467 354.857 201.467Z" fill="#707070"/>
<path fill-rule="evenodd" clip-rule="evenodd" d="M363.949 201.832C363.166 200.716 362.702 199.329 362.702 197.825C362.702 194.138 365.491 191.149 368.932 191.149C372.373 191.149 375.162 194.138 375.162 197.825C375.162 199.329 374.698 200.716 373.915 201.832C373.827 201.999 369.659 209.84 368.932 209.84C368.205 209.84 364.037 201.999 363.949 201.832ZM368.932 200.495C370.652 200.495 372.047 199.1 372.047 197.38C372.047 195.659 370.652 194.264 368.932 194.264C367.211 194.264 365.817 195.659 365.817 197.38C365.817 199.1 367.211 200.495 368.932 200.495Z" fill="#707070"/>
<path fill-rule="evenodd" clip-rule="evenodd" d="M321.094 183.142C320.31 182.026 319.846 180.638 319.846 179.134C319.846 175.448 322.636 172.459 326.076 172.459C329.517 172.459 332.307 175.448 332.307 179.134C332.307 180.638 331.843 182.026 331.059 183.142C330.971 183.308 326.803 191.15 326.076 191.15C325.35 191.15 321.182 183.308 321.094 183.142ZM326.076 181.804C327.797 181.804 329.192 180.41 329.192 178.689C329.192 176.969 327.797 175.574 326.076 175.574C324.356 175.574 322.961 176.969 322.961 178.689C322.961 180.41 324.356 181.804 326.076 181.804Z" fill="#707070"/>
<path fill-rule="evenodd" clip-rule="evenodd" d="M110.776 161.223C109.993 160.107 109.529 158.719 109.529 157.215C109.529 153.528 112.318 150.54 115.759 150.54C119.2 150.54 121.989 153.528 121.989 157.215C121.989 158.719 121.525 160.107 120.742 161.223C120.654 161.389 116.486 169.23 115.759 169.23C115.032 169.23 110.865 161.389 110.776 161.223ZM115.759 159.885C117.48 159.885 118.874 158.49 118.874 156.77C118.874 155.049 117.48 153.655 115.759 153.655C114.039 153.655 112.644 155.049 112.644 156.77C112.644 158.49 114.039 159.885 115.759 159.885Z" fill="#707070"/>
<path fill-rule="evenodd" clip-rule="evenodd" d="M126.013 173.457C125.23 172.341 124.766 170.954 124.766 169.45C124.766 165.763 127.555 162.774 130.996 162.774C134.437 162.774 137.226 165.763 137.226 169.45C137.226 170.954 136.762 172.341 135.979 173.457C135.89 173.624 131.723 181.465 130.996 181.465C130.269 181.465 126.101 173.624 126.013 173.457ZM130.996 172.12C132.716 172.12 134.111 170.725 134.111 169.005C134.111 167.284 132.716 165.889 130.996 165.889C129.275 165.889 127.881 167.284 127.881 169.005C127.881 170.725 129.275 172.12 130.996 172.12Z" fill="#707070"/>
<path fill-rule="evenodd" clip-rule="evenodd" d="M138.475 194.3C137.691 193.184 137.227 191.796 137.227 190.293C137.227 186.606 140.017 183.617 143.457 183.617C146.898 183.617 149.688 186.606 149.688 190.293C149.688 191.796 149.223 193.184 148.44 194.3C148.352 194.466 144.184 202.308 143.457 202.308C142.731 202.308 138.563 194.466 138.475 194.3ZM143.457 192.963C145.178 192.963 146.572 191.568 146.572 189.847C146.572 188.127 145.178 186.732 143.457 186.732C141.737 186.732 140.342 188.127 140.342 189.847C140.342 191.568 141.737 192.963 143.457 192.963Z" fill="#707070"/>
<path fill-rule="evenodd" clip-rule="evenodd" d="M166.903 175.61C166.119 174.494 165.655 173.106 165.655 171.602C165.655 167.915 168.445 164.927 171.886 164.927C175.326 164.927 178.116 167.915 178.116 171.602C178.116 173.106 177.652 174.494 176.868 175.61C176.78 175.776 172.612 183.618 171.886 183.618C171.159 183.618 166.991 175.776 166.903 175.61ZM171.886 174.272C173.606 174.272 175.001 172.877 175.001 171.157C175.001 169.436 173.606 168.042 171.886 168.042C170.165 168.042 168.77 169.436 168.77 171.157C168.77 172.877 170.165 174.272 171.886 174.272Z" fill="#707070"/>
<path fill-rule="evenodd" clip-rule="evenodd" d="M183.322 184.955C182.538 183.838 182.074 182.451 182.074 180.947C182.074 177.26 184.864 174.271 188.304 174.271C191.745 174.271 194.535 177.26 194.535 180.947C194.535 182.451 194.071 183.838 193.287 184.955C193.199 185.121 189.031 192.962 188.304 192.962C187.578 192.962 183.41 185.121 183.322 184.955ZM188.304 183.617C190.025 183.617 191.42 182.222 191.42 180.502C191.42 178.781 190.025 177.387 188.304 177.387C186.584 177.387 185.189 178.781 185.189 180.502C185.189 182.222 186.584 183.617 188.304 183.617Z" fill="#707070"/>
<path fill-rule="evenodd" clip-rule="evenodd" d="M199.084 220.42C198.301 219.304 197.836 217.916 197.836 216.412C197.836 212.725 200.626 209.737 204.067 209.737C207.507 209.737 210.297 212.725 210.297 216.412C210.297 217.916 209.833 219.304 209.049 220.42C208.961 220.586 204.793 228.427 204.067 228.427C203.34 228.427 199.172 220.586 199.084 220.42ZM204.067 219.082C205.787 219.082 207.182 217.687 207.182 215.967C207.182 214.246 205.787 212.852 204.067 212.852C202.346 212.852 200.952 214.246 200.952 215.967C200.952 217.687 202.346 219.082 204.067 219.082Z" fill="#707070"/>
<path fill-rule="evenodd" clip-rule="evenodd" d="M146.033 223.648C145.249 222.532 144.785 221.144 144.785 219.64C144.785 215.954 147.575 212.965 151.015 212.965C154.456 212.965 157.246 215.954 157.246 219.64C157.246 221.144 156.782 222.532 155.998 223.648C155.91 223.814 151.742 231.656 151.015 231.656C150.289 231.656 146.121 223.814 146.033 223.648ZM151.015 222.31C152.736 222.31 154.131 220.916 154.131 219.195C154.131 217.475 152.736 216.08 151.015 216.08C149.295 216.08 147.9 217.475 147.9 219.195C147.9 220.916 149.295 222.31 151.015 222.31Z" fill="#707070"/>
<path fill-rule="evenodd" clip-rule="evenodd" d="M170.861 271.592C170.077 270.476 169.613 269.088 169.613 267.584C169.613 263.897 172.403 260.909 175.844 260.909C179.284 260.909 182.074 263.897 182.074 267.584C182.074 269.088 181.61 270.476 180.826 271.592C180.738 271.758 176.57 279.6 175.844 279.6C175.117 279.6 170.949 271.758 170.861 271.592ZM175.844 270.254C177.564 270.254 178.959 268.859 178.959 267.139C178.959 265.418 177.564 264.024 175.844 264.024C174.123 264.024 172.728 265.418 172.728 267.139C172.728 268.859 174.123 270.254 175.844 270.254Z" fill="#707070"/>
<path fill-rule="evenodd" clip-rule="evenodd" d="M117.006 164.112C116.223 162.996 115.759 161.608 115.759 160.104C115.759 156.417 118.548 153.429 121.989 153.429C125.43 153.429 128.219 156.417 128.219 160.104C128.219 161.608 127.755 162.996 126.972 164.112C126.884 164.278 122.716 172.12 121.989 172.12C121.262 172.12 117.095 164.278 117.006 164.112ZM121.989 162.774C123.71 162.774 125.104 161.379 125.104 159.659C125.104 157.938 123.71 156.544 121.989 156.544C120.269 156.544 118.874 157.938 118.874 159.659C118.874 161.379 120.269 162.774 121.989 162.774Z" fill="#707070"/>
<path fill-rule="evenodd" clip-rule="evenodd" d="M373.888 130.422C373.105 129.305 372.641 127.918 372.641 126.414C372.641 122.727 375.43 119.739 378.871 119.739C382.312 119.739 385.101 122.727 385.101 126.414C385.101 127.918 384.637 129.306 383.854 130.422C383.765 130.588 379.598 138.429 378.871 138.429C378.144 138.429 373.976 130.588 373.888 130.422ZM378.871 129.084C380.591 129.084 381.986 127.689 381.986 125.969C381.986 124.248 380.591 122.854 378.871 122.854C377.15 122.854 375.756 124.248 375.756 125.969C375.756 127.689 377.15 129.084 378.871 129.084Z" fill="#707070"/>
<path fill-rule="evenodd" clip-rule="evenodd" d="M370.828 193.459C370.044 192.343 369.58 190.955 369.58 189.452C369.58 185.765 372.37 182.776 375.81 182.776C379.251 182.776 382.041 185.765 382.041 189.452C382.041 190.956 381.576 192.343 380.793 193.459C380.705 193.625 376.537 201.467 375.81 201.467C375.084 201.467 370.916 193.626 370.828 193.459ZM375.81 192.122C377.531 192.122 378.925 190.727 378.925 189.007C378.925 187.286 377.531 185.891 375.81 185.891C374.09 185.891 372.695 187.286 372.695 189.007C372.695 190.727 374.09 192.122 375.81 192.122Z" fill="#707070"/>
<path fill-rule="evenodd" clip-rule="evenodd" d="M503.877 150.188C503.094 149.072 502.63 147.684 502.63 146.181C502.63 142.494 505.419 139.505 508.86 139.505C512.301 139.505 515.09 142.494 515.09 146.181C515.09 147.685 514.626 149.072 513.843 150.188C513.755 150.354 509.587 158.196 508.86 158.196C508.134 158.196 503.966 150.355 503.877 150.188ZM508.86 148.851C510.581 148.851 511.975 147.456 511.975 145.736C511.975 144.015 510.581 142.62 508.86 142.62C507.14 142.62 505.745 144.015 505.745 145.736C505.745 147.456 507.14 148.851 508.86 148.851Z" fill="#707070"/>
<path fill-rule="evenodd" clip-rule="evenodd" d="M330.537 194.3C329.753 193.184 329.289 191.796 329.289 190.293C329.289 186.606 332.079 183.617 335.519 183.617C338.96 183.617 341.75 186.606 341.75 190.293C341.75 191.796 341.285 193.184 340.502 194.3C340.414 194.466 336.246 202.308 335.519 202.308C334.793 202.308 330.625 194.466 330.537 194.3ZM335.519 192.963C337.24 192.963 338.634 191.568 338.634 189.847C338.634 188.127 337.24 186.732 335.519 186.732C333.799 186.732 332.404 188.127 332.404 189.847C332.404 191.568 333.799 192.963 335.519 192.963Z" fill="#707070"/>
<path fill-rule="evenodd" clip-rule="evenodd" d="M179.363 239.111C178.579 237.994 178.115 236.607 178.115 235.103C178.115 231.416 180.905 228.427 184.346 228.427C187.786 228.427 190.576 231.416 190.576 235.103C190.576 236.607 190.112 237.994 189.328 239.111C189.24 239.277 185.072 247.118 184.346 247.118C183.619 247.118 179.451 239.277 179.363 239.111ZM184.346 237.773C186.066 237.773 187.461 236.378 187.461 234.658C187.461 232.937 186.066 231.543 184.346 231.543C182.625 231.543 181.23 232.937 181.23 234.658C181.23 236.378 182.625 237.773 184.346 237.773Z" fill="#707070"/>
<path fill-rule="evenodd" clip-rule="evenodd" d="M144.704 204.957C143.921 203.841 143.457 202.454 143.457 200.95C143.457 197.263 146.246 194.274 149.687 194.274C153.128 194.274 155.917 197.263 155.917 200.95C155.917 202.454 155.453 203.841 154.67 204.957C154.581 205.124 150.413 212.965 149.687 212.965C148.96 212.965 144.792 205.124 144.704 204.957ZM149.687 203.62C151.407 203.62 152.802 202.225 152.802 200.505C152.802 198.784 151.407 197.389 149.687 197.389C147.966 197.389 146.572 198.784 146.572 200.505C146.572 202.225 147.966 203.62 149.687 203.62Z" fill="#707070"/>
<path fill-rule="evenodd" clip-rule="evenodd" d="M150.935 146.694C150.152 145.578 149.688 144.19 149.688 142.686C149.688 139 152.477 136.011 155.918 136.011C159.359 136.011 162.148 139 162.148 142.686C162.148 144.19 161.684 145.578 160.901 146.694C160.812 146.86 156.644 154.702 155.918 154.702C155.191 154.702 151.023 146.86 150.935 146.694ZM155.918 145.356C157.638 145.356 159.033 143.962 159.033 142.241C159.033 140.521 157.638 139.126 155.918 139.126C154.197 139.126 152.803 140.521 152.803 142.241C152.803 143.962 154.197 145.356 155.918 145.356Z" fill="#707070"/>
<path fill-rule="evenodd" clip-rule="evenodd" d="M123.237 151.877C122.453 150.761 121.989 149.373 121.989 147.87C121.989 144.183 124.779 141.194 128.22 141.194C131.66 141.194 134.45 144.183 134.45 147.87C134.45 149.374 133.986 150.761 133.202 151.877C133.114 152.043 128.946 159.885 128.22 159.885C127.493 159.885 123.325 152.044 123.237 151.877ZM128.22 150.54C129.94 150.54 131.335 149.145 131.335 147.425C131.335 145.704 129.94 144.309 128.22 144.309C126.499 144.309 125.104 145.704 125.104 147.425C125.104 149.145 126.499 150.54 128.22 150.54Z" fill="#707070"/>
<path fill-rule="evenodd" clip-rule="evenodd" d="M160.672 146.694C159.888 145.578 159.424 144.19 159.424 142.686C159.424 139 162.214 136.011 165.655 136.011C169.095 136.011 171.885 139 171.885 142.686C171.885 144.19 171.421 145.578 170.637 146.694C170.549 146.86 166.381 154.702 165.655 154.702C164.928 154.702 160.76 146.86 160.672 146.694ZM165.655 145.356C167.375 145.356 168.77 143.962 168.77 142.241C168.77 140.521 167.375 139.126 165.655 139.126C163.934 139.126 162.539 140.521 162.539 142.241C162.539 143.962 163.934 145.356 165.655 145.356Z" fill="#707070"/>
<path fill-rule="evenodd" clip-rule="evenodd" d="M141.954 145.421C141.171 144.305 140.707 142.917 140.707 141.413C140.707 137.726 143.496 134.738 146.937 134.738C150.378 134.738 153.167 137.726 153.167 141.413C153.167 142.917 152.703 144.305 151.92 145.421C151.831 145.587 147.663 153.429 146.937 153.429C146.21 153.429 142.042 145.587 141.954 145.421ZM146.937 144.083C148.657 144.083 150.052 142.688 150.052 140.968C150.052 139.248 148.657 137.853 146.937 137.853C145.216 137.853 143.822 139.248 143.822 140.968C143.822 142.688 145.216 144.083 146.937 144.083Z" fill="#707070"/>
</svg>
