<svg width="580" height="281" viewBox="0 0 580 281" fill="none" xmlns="http://www.w3.org/2000/svg">
<path fill-rule="evenodd" clip-rule="evenodd" d="M61.1088 105.105C60.3255 103.989 59.8613 102.601 59.8613 101.098C59.8613 97.411 62.6508 94.4224 66.0916 94.4224C69.5324 94.4224 72.3219 97.411 72.3219 101.098C72.3219 102.602 71.8577 103.989 71.0744 105.105C70.9862 105.271 66.8183 113.113 66.0916 113.113C65.3649 113.113 61.1971 105.272 61.1088 105.105ZM66.0916 103.768C67.8121 103.768 69.2067 102.373 69.2067 100.653C69.2067 98.9321 67.8121 97.5374 66.0916 97.5374C64.3711 97.5374 62.9765 98.9321 62.9765 100.653C62.9765 102.373 64.3711 103.768 66.0916 103.768Z" fill="#707070"/>
<path fill-rule="evenodd" clip-rule="evenodd" d="M306.481 176.999C305.698 175.883 305.233 174.495 305.233 172.991C305.233 169.304 308.023 166.316 311.464 166.316C314.904 166.316 317.694 169.304 317.694 172.991C317.694 174.495 317.23 175.883 316.446 176.999C316.358 177.165 312.19 185.007 311.464 185.007C310.737 185.007 306.569 177.165 306.481 176.999ZM311.464 175.661C313.184 175.661 314.579 174.266 314.579 172.546C314.579 170.825 313.184 169.431 311.464 169.431C309.743 169.431 308.349 170.825 308.349 172.546C308.349 174.266 309.743 175.661 311.464 175.661Z" fill="#707070"/>
<path fill-rule="evenodd" clip-rule="evenodd" d="M378.024 219.344C377.241 218.228 376.776 216.84 376.776 215.336C376.776 211.649 379.566 208.661 383.007 208.661C386.447 208.661 389.237 211.649 389.237 215.336C389.237 216.84 388.773 218.228 387.989 219.344C387.901 219.51 383.733 227.351 383.007 227.351C382.28 227.351 378.112 219.51 378.024 219.344ZM383.007 218.006C384.727 218.006 386.122 216.611 386.122 214.891C386.122 213.17 384.727 211.776 383.007 211.776C381.286 211.776 379.892 213.17 379.892 214.891C379.892 216.611 381.286 218.006 383.007 218.006Z" fill="#707070"/>
<path fill-rule="evenodd" clip-rule="evenodd" d="M110.776 161.223C109.993 160.107 109.529 158.719 109.529 157.215C109.529 153.528 112.318 150.54 115.759 150.54C119.2 150.54 121.989 153.528 121.989 157.215C121.989 158.719 121.525 160.107 120.742 161.223C120.654 161.389 116.486 169.23 115.759 169.23C115.032 169.23 110.865 161.389 110.776 161.223ZM115.759 159.885C117.48 159.885 118.874 158.49 118.874 156.77C118.874 155.049 117.48 153.655 115.759 153.655C114.039 153.655 112.644 155.049 112.644 156.77C112.644 158.49 114.039 159.885 115.759 159.885Z" fill="#707070"/>
<path fill-rule="evenodd" clip-rule="evenodd" d="M126.013 173.457C125.23 172.341 124.766 170.954 124.766 169.45C124.766 165.763 127.555 162.774 130.996 162.774C134.437 162.774 137.226 165.763 137.226 169.45C137.226 170.954 136.762 172.341 135.979 173.457C135.89 173.624 131.723 181.465 130.996 181.465C130.269 181.465 126.101 173.624 126.013 173.457ZM130.996 172.12C132.716 172.12 134.111 170.725 134.111 169.005C134.111 167.284 132.716 165.889 130.996 165.889C129.275 165.889 127.881 167.284 127.881 169.005C127.881 170.725 129.275 172.12 130.996 172.12Z" fill="#707070"/>
<path fill-rule="evenodd" clip-rule="evenodd" d="M170.861 271.592C170.077 270.476 169.613 269.088 169.613 267.584C169.613 263.897 172.403 260.909 175.844 260.909C179.284 260.909 182.074 263.897 182.074 267.584C182.074 269.088 181.61 270.476 180.826 271.592C180.738 271.758 176.57 279.6 175.844 279.6C175.117 279.6 170.949 271.758 170.861 271.592ZM175.844 270.254C177.564 270.254 178.959 268.859 178.959 267.139C178.959 265.418 177.564 264.024 175.844 264.024C174.123 264.024 172.728 265.418 172.728 267.139C172.728 268.859 174.123 270.254 175.844 270.254Z" fill="#707070"/>
<path fill-rule="evenodd" clip-rule="evenodd" d="M503.877 150.188C503.094 149.072 502.63 147.684 502.63 146.181C502.63 142.494 505.419 139.505 508.86 139.505C512.301 139.505 515.09 142.494 515.09 146.181C515.09 147.685 514.626 149.072 513.843 150.188C513.755 150.354 509.587 158.196 508.86 158.196C508.134 158.196 503.966 150.355 503.877 150.188ZM508.86 148.851C510.581 148.851 511.975 147.456 511.975 145.736C511.975 144.015 510.581 142.62 508.86 142.62C507.14 142.62 505.745 144.015 505.745 145.736C505.745 147.456 507.14 148.851 508.86 148.851Z" fill="#707070"/>
</svg>
