<svg width="580" height="281" viewBox="0 0 580 281" fill="none" xmlns="http://www.w3.org/2000/svg">
<path fill-rule="evenodd" clip-rule="evenodd" d="M61.1088 105.105C60.3255 103.989 59.8613 102.601 59.8613 101.098C59.8613 97.411 62.6508 94.4224 66.0916 94.4224C69.5324 94.4224 72.3219 97.411 72.3219 101.098C72.3219 102.602 71.8577 103.989 71.0744 105.105C70.9862 105.271 66.8183 113.113 66.0916 113.113C65.3649 113.113 61.1971 105.272 61.1088 105.105ZM66.0916 103.768C67.8121 103.768 69.2067 102.373 69.2067 100.653C69.2067 98.9321 67.8121 97.5374 66.0916 97.5374C64.3711 97.5374 62.9765 98.9321 62.9765 100.653C62.9765 102.373 64.3711 103.768 66.0916 103.768Z" fill="#707070"/>
<path fill-rule="evenodd" clip-rule="evenodd" d="M306.481 176.999C305.698 175.883 305.233 174.495 305.233 172.991C305.233 169.304 308.023 166.316 311.464 166.316C314.904 166.316 317.694 169.304 317.694 172.991C317.694 174.495 317.23 175.883 316.446 176.999C316.358 177.165 312.19 185.007 311.464 185.007C310.737 185.007 306.569 177.165 306.481 176.999ZM311.464 175.661C313.184 175.661 314.579 174.266 314.579 172.546C314.579 170.825 313.184 169.431 311.464 169.431C309.743 169.431 308.349 170.825 308.349 172.546C308.349 174.266 309.743 175.661 311.464 175.661Z" fill="#707070"/>
<path fill-rule="evenodd" clip-rule="evenodd" d="M365.564 145.421C364.781 144.305 364.316 142.917 364.316 141.413C364.316 137.726 367.106 134.738 370.547 134.738C373.987 134.738 376.777 137.726 376.777 141.413C376.777 142.917 376.313 144.305 375.529 145.421C375.441 145.587 371.273 153.429 370.547 153.429C369.82 153.429 365.652 145.587 365.564 145.421ZM370.547 144.083C372.267 144.083 373.662 142.688 373.662 140.968C373.662 139.248 372.267 137.853 370.547 137.853C368.826 137.853 367.432 139.248 367.432 140.968C367.432 142.688 368.826 144.083 370.547 144.083Z" fill="#707070"/>
<path fill-rule="evenodd" clip-rule="evenodd" d="M516.638 43.7172C515.855 42.6011 515.391 41.2133 515.391 39.7095C515.391 36.0228 518.18 33.0342 521.621 33.0342C525.062 33.0342 527.851 36.0228 527.851 39.7095C527.851 41.2135 527.387 42.6012 526.604 43.7172C526.515 43.8833 522.348 51.725 521.621 51.725C520.894 51.725 516.726 43.8834 516.638 43.7172ZM521.621 42.3795C523.341 42.3795 524.736 40.9848 524.736 39.2644C524.736 37.5439 523.341 36.1492 521.621 36.1492C519.9 36.1492 518.506 37.5439 518.506 39.2644C518.506 40.9848 519.9 42.3795 521.621 42.3795Z" fill="#707070"/>
<path fill-rule="evenodd" clip-rule="evenodd" d="M478.655 138.691C477.871 137.575 477.407 136.187 477.407 134.683C477.407 130.997 480.197 128.008 483.638 128.008C487.078 128.008 489.868 130.997 489.868 134.683C489.868 136.187 489.404 137.575 488.62 138.691C488.532 138.857 484.364 146.699 483.638 146.699C482.911 146.699 478.743 138.857 478.655 138.691ZM483.638 137.353C485.358 137.353 486.753 135.959 486.753 134.238C486.753 132.518 485.358 131.123 483.638 131.123C481.917 131.123 480.522 132.518 480.522 134.238C480.522 135.959 481.917 137.353 483.638 137.353Z" fill="#707070"/>
<path fill-rule="evenodd" clip-rule="evenodd" d="M557.826 205.035C557.043 203.919 556.579 202.531 556.579 201.027C556.579 197.341 559.368 194.352 562.809 194.352C566.25 194.352 569.039 197.341 569.039 201.027C569.039 202.531 568.575 203.919 567.792 205.035C567.703 205.201 563.536 213.043 562.809 213.043C562.082 213.043 557.914 205.201 557.826 205.035ZM562.809 203.697C564.529 203.697 565.924 202.303 565.924 200.582C565.924 198.862 564.529 197.467 562.809 197.467C561.088 197.467 559.694 198.862 559.694 200.582C559.694 202.303 561.088 203.697 562.809 203.697Z" fill="#707070"/>
<path fill-rule="evenodd" clip-rule="evenodd" d="M383.288 195.689C382.504 194.573 382.04 193.185 382.04 191.682C382.04 187.995 384.83 185.006 388.27 185.006C391.711 185.006 394.501 187.995 394.501 191.682C394.501 193.186 394.036 194.573 393.253 195.689C393.165 195.855 388.997 203.697 388.27 203.697C387.544 203.697 383.376 195.856 383.288 195.689ZM388.27 194.352C389.991 194.352 391.385 192.957 391.385 191.237C391.385 189.516 389.991 188.121 388.27 188.121C386.55 188.121 385.155 189.516 385.155 191.237C385.155 192.957 386.55 194.352 388.27 194.352Z" fill="#707070"/>
<path fill-rule="evenodd" clip-rule="evenodd" d="M378.024 219.344C377.241 218.228 376.776 216.84 376.776 215.336C376.776 211.649 379.566 208.661 383.007 208.661C386.447 208.661 389.237 211.649 389.237 215.336C389.237 216.84 388.773 218.228 387.989 219.344C387.901 219.51 383.733 227.351 383.007 227.351C382.28 227.351 378.112 219.51 378.024 219.344ZM383.007 218.006C384.727 218.006 386.122 216.611 386.122 214.891C386.122 213.17 384.727 211.776 383.007 211.776C381.286 211.776 379.892 213.17 379.892 214.891C379.892 216.611 381.286 218.006 383.007 218.006Z" fill="#707070"/>
<path fill-rule="evenodd" clip-rule="evenodd" d="M349.874 202.805C349.091 201.689 348.627 200.301 348.627 198.797C348.627 195.111 351.416 192.122 354.857 192.122C358.298 192.122 361.088 195.111 361.088 198.797C361.088 200.301 360.623 201.689 359.84 202.805C359.752 202.971 355.584 210.813 354.857 210.813C354.131 210.813 349.963 202.971 349.874 202.805ZM354.857 201.467C356.578 201.467 357.972 200.073 357.972 198.352C357.972 196.632 356.578 195.237 354.857 195.237C353.137 195.237 351.742 196.632 351.742 198.352C351.742 200.073 353.137 201.467 354.857 201.467Z" fill="#707070"/>
<path fill-rule="evenodd" clip-rule="evenodd" d="M110.776 161.223C109.993 160.107 109.529 158.719 109.529 157.215C109.529 153.528 112.318 150.54 115.759 150.54C119.2 150.54 121.989 153.528 121.989 157.215C121.989 158.719 121.525 160.107 120.742 161.223C120.654 161.389 116.486 169.23 115.759 169.23C115.032 169.23 110.865 161.389 110.776 161.223ZM115.759 159.885C117.48 159.885 118.874 158.49 118.874 156.77C118.874 155.049 117.48 153.655 115.759 153.655C114.039 153.655 112.644 155.049 112.644 156.77C112.644 158.49 114.039 159.885 115.759 159.885Z" fill="#707070"/>
<path fill-rule="evenodd" clip-rule="evenodd" d="M126.013 173.457C125.23 172.341 124.766 170.954 124.766 169.45C124.766 165.763 127.555 162.774 130.996 162.774C134.437 162.774 137.226 165.763 137.226 169.45C137.226 170.954 136.762 172.341 135.979 173.457C135.89 173.624 131.723 181.465 130.996 181.465C130.269 181.465 126.101 173.624 126.013 173.457ZM130.996 172.12C132.716 172.12 134.111 170.725 134.111 169.005C134.111 167.284 132.716 165.889 130.996 165.889C129.275 165.889 127.881 167.284 127.881 169.005C127.881 170.725 129.275 172.12 130.996 172.12Z" fill="#707070"/>
<path fill-rule="evenodd" clip-rule="evenodd" d="M183.322 184.955C182.538 183.838 182.074 182.451 182.074 180.947C182.074 177.26 184.864 174.271 188.304 174.271C191.745 174.271 194.535 177.26 194.535 180.947C194.535 182.451 194.071 183.838 193.287 184.955C193.199 185.121 189.031 192.962 188.304 192.962C187.578 192.962 183.41 185.121 183.322 184.955ZM188.304 183.617C190.025 183.617 191.42 182.222 191.42 180.502C191.42 178.781 190.025 177.387 188.304 177.387C186.584 177.387 185.189 178.781 185.189 180.502C185.189 182.222 186.584 183.617 188.304 183.617Z" fill="#707070"/>
<path fill-rule="evenodd" clip-rule="evenodd" d="M146.033 223.648C145.249 222.532 144.785 221.144 144.785 219.64C144.785 215.954 147.575 212.965 151.015 212.965C154.456 212.965 157.246 215.954 157.246 219.64C157.246 221.144 156.782 222.532 155.998 223.648C155.91 223.814 151.742 231.656 151.015 231.656C150.289 231.656 146.121 223.814 146.033 223.648ZM151.015 222.31C152.736 222.31 154.131 220.916 154.131 219.195C154.131 217.475 152.736 216.08 151.015 216.08C149.295 216.08 147.9 217.475 147.9 219.195C147.9 220.916 149.295 222.31 151.015 222.31Z" fill="#707070"/>
<path fill-rule="evenodd" clip-rule="evenodd" d="M170.861 271.592C170.077 270.476 169.613 269.088 169.613 267.584C169.613 263.897 172.403 260.909 175.844 260.909C179.284 260.909 182.074 263.897 182.074 267.584C182.074 269.088 181.61 270.476 180.826 271.592C180.738 271.758 176.57 279.6 175.844 279.6C175.117 279.6 170.949 271.758 170.861 271.592ZM175.844 270.254C177.564 270.254 178.959 268.859 178.959 267.139C178.959 265.418 177.564 264.024 175.844 264.024C174.123 264.024 172.728 265.418 172.728 267.139C172.728 268.859 174.123 270.254 175.844 270.254Z" fill="#707070"/>
<path fill-rule="evenodd" clip-rule="evenodd" d="M503.877 150.188C503.094 149.072 502.63 147.684 502.63 146.181C502.63 142.494 505.419 139.505 508.86 139.505C512.301 139.505 515.09 142.494 515.09 146.181C515.09 147.685 514.626 149.072 513.843 150.188C513.755 150.354 509.587 158.196 508.86 158.196C508.134 158.196 503.966 150.355 503.877 150.188ZM508.86 148.851C510.581 148.851 511.975 147.456 511.975 145.736C511.975 144.015 510.581 142.62 508.86 142.62C507.14 142.62 505.745 144.015 505.745 145.736C505.745 147.456 507.14 148.851 508.86 148.851Z" fill="#707070"/>
<path fill-rule="evenodd" clip-rule="evenodd" d="M330.537 194.3C329.753 193.184 329.289 191.796 329.289 190.293C329.289 186.606 332.079 183.617 335.519 183.617C338.96 183.617 341.75 186.606 341.75 190.293C341.75 191.796 341.285 193.184 340.502 194.3C340.414 194.466 336.246 202.308 335.519 202.308C334.793 202.308 330.625 194.466 330.537 194.3ZM335.519 192.963C337.24 192.963 338.634 191.568 338.634 189.847C338.634 188.127 337.24 186.732 335.519 186.732C333.799 186.732 332.404 188.127 332.404 189.847C332.404 191.568 333.799 192.963 335.519 192.963Z" fill="#707070"/>
<path fill-rule="evenodd" clip-rule="evenodd" d="M160.672 146.694C159.888 145.578 159.424 144.19 159.424 142.686C159.424 139 162.214 136.011 165.655 136.011C169.095 136.011 171.885 139 171.885 142.686C171.885 144.19 171.421 145.578 170.637 146.694C170.549 146.86 166.381 154.702 165.655 154.702C164.928 154.702 160.76 146.86 160.672 146.694ZM165.655 145.356C167.375 145.356 168.77 143.962 168.77 142.241C168.77 140.521 167.375 139.126 165.655 139.126C163.934 139.126 162.539 140.521 162.539 142.241C162.539 143.962 163.934 145.356 165.655 145.356Z" fill="#707070"/>
<path fill-rule="evenodd" clip-rule="evenodd" d="M141.954 145.421C141.171 144.305 140.707 142.917 140.707 141.413C140.707 137.726 143.496 134.738 146.937 134.738C150.378 134.738 153.167 137.726 153.167 141.413C153.167 142.917 152.703 144.305 151.92 145.421C151.831 145.587 147.663 153.429 146.937 153.429C146.21 153.429 142.042 145.587 141.954 145.421ZM146.937 144.083C148.657 144.083 150.052 142.688 150.052 140.968C150.052 139.248 148.657 137.853 146.937 137.853C145.216 137.853 143.822 139.248 143.822 140.968C143.822 142.688 145.216 144.083 146.937 144.083Z" fill="#707070"/>
</svg>
