<svg width="12" height="18" viewBox="0 0 12 18" fill="none" xmlns="http://www.w3.org/2000/svg">
<path fill-rule="evenodd" clip-rule="evenodd" d="M1.2014 10.2882C0.44702 9.21336 0 7.8768 0 6.4286C0 2.8782 2.6864 0 6 0C9.3136 0 12 2.8782 12 6.4286C12 7.87696 11.553 9.2134 10.7986 10.2882C10.7137 10.4481 6.6998 18 6 18C5.3002 18 1.2864 10.4482 1.2014 10.2882ZM6 8.99992C7.65688 8.99992 9 7.6568 9 5.99992C9 4.34304 7.65688 2.99992 6 2.99992C4.34312 2.99992 3 4.34304 3 5.99992C3 7.6568 4.34312 8.99992 6 8.99992Z" fill="#707070"/>
</svg>
