<svg width="12" height="19" viewBox="0 0 12 19" fill="none" xmlns="http://www.w3.org/2000/svg">
<path fill-rule="evenodd" clip-rule="evenodd" d="M1.2014 10.7184C0.44702 9.64353 0 8.30698 0 6.85878C0 3.30838 2.6864 0.430176 6 0.430176C9.3136 0.430176 12 3.30838 12 6.85878C12 8.30714 11.553 9.64357 10.7986 10.7184C10.7137 10.8783 6.6998 18.4302 6 18.4302C5.3002 18.4302 1.2864 10.8784 1.2014 10.7184ZM6 9.43009C7.65688 9.43009 9 8.08698 9 6.4301C9 4.77322 7.65688 3.4301 6 3.4301C4.34312 3.4301 3 4.77322 3 6.4301C3 8.08698 4.34312 9.43009 6 9.43009Z" fill="#C35631"/>
</svg>
