<svg width="100" height="100" viewBox="0 0 100 100" fill="none" xmlns="http://www.w3.org/2000/svg">
<path d="M37.4102 58.9999C36.9371 58.4019 36.6267 57.6916 36.5093 56.9381C36.3919 56.1846 36.4714 55.4135 36.7402 54.6999C37.009 53.9862 37.4578 53.3542 38.043 52.8654C38.6283 52.3765 39.3301 52.0473 40.0802 51.9099C39.8277 51.3347 39.6972 50.7132 39.6972 50.0849C39.6972 49.4567 39.8277 48.8352 40.0802 48.2599C40.3408 47.6564 40.7417 47.1237 41.2495 46.7063C41.7574 46.2889 42.3576 45.9987 43.0002 45.8599L42.4202 45.2399C41.7941 44.6107 41.3735 43.8065 41.2138 42.9334C41.0541 42.0602 41.1628 41.1592 41.5256 40.3491C41.8884 39.539 42.4883 38.8579 43.246 38.3957C44.0038 37.9335 44.8839 37.7118 45.7702 37.7599C46.9395 37.8014 48.0456 38.3006 48.8502 39.1499L50.8502 41.1499C51.8502 40.2499 52.8502 39.3999 53.7302 38.4899C54.4692 37.7082 55.4406 37.1857 56.5002 36.9999C57.4038 36.8402 58.3347 36.9675 59.1622 37.3641C59.9896 37.7607 60.672 38.4066 61.1134 39.2111C61.5548 40.0155 61.733 40.9381 61.623 41.8491C61.5131 42.76 61.1204 43.6137 60.5002 44.2899C59.5902 45.2899 58.6202 46.2199 57.6802 47.1799L57.2302 47.6599C57.6802 48.0899 58.1302 48.4899 58.5502 48.9199C59.9002 50.2799 61.3302 51.5799 62.5502 53.0299C64.7575 55.5295 65.9371 58.7718 65.8517 62.1053C65.7664 65.4389 64.4225 68.6166 62.0902 70.9999C60.7347 72.505 59.1765 73.8142 57.4602 74.8899C55.1342 76.2116 52.4571 76.7835 49.7941 76.5276C47.1311 76.2717 44.6119 75.2004 42.5802 73.4599C40.3902 71.5199 38.3802 69.3699 36.2802 67.3199L35.4102 66.4299C34.8904 65.8993 34.5124 65.2464 34.311 64.5314C34.1096 63.8165 34.0912 63.0623 34.2575 62.3383C34.4238 61.6144 34.7694 60.9439 35.2627 60.3885C35.756 59.833 36.381 59.4106 37.0802 59.1599L37.4102 58.9999ZM50.9002 74.3199C53.245 74.3528 55.5344 73.6072 57.4102 72.1999C58.3574 71.4514 59.2528 70.6396 60.0902 69.7699C61.1957 68.7479 62.0795 67.5097 62.6871 66.1322C63.2947 64.7547 63.613 63.2671 63.6224 61.7616C63.6318 60.2561 63.332 58.7647 62.7416 57.3797C62.1512 55.9947 61.2829 54.7457 60.1902 53.7099C57.7802 51.2799 55.3602 48.8699 52.9402 46.4499L47.2302 40.7299C46.9766 40.4314 46.6495 40.2043 46.2812 40.071C45.9128 39.9377 45.5161 39.9029 45.1302 39.9699C44.7332 40.0266 44.3609 40.1963 44.0577 40.4587C43.7545 40.7211 43.5332 41.0652 43.4202 41.4499C43.2777 41.8508 43.2567 42.2848 43.3598 42.6975C43.463 43.1103 43.6858 43.4833 44.0002 43.7699L51.3502 51.1499L56.2502 56.0699C56.4135 56.1991 56.5407 56.3682 56.6196 56.5609C56.6984 56.7536 56.7262 56.9634 56.7002 57.1699C56.675 57.3687 56.5945 57.5564 56.4678 57.7117C56.3411 57.8669 56.1734 57.9835 55.9838 58.0481C55.7941 58.1127 55.5901 58.1228 55.395 58.0771C55.1999 58.0315 55.0215 57.932 54.8802 57.7899C53.7902 56.7899 52.7402 55.7299 51.6902 54.6799L45.6902 48.6099C45.4879 48.387 45.2422 48.2078 44.9682 48.0832C44.6941 47.9587 44.3975 47.8914 44.0966 47.8855C43.7956 47.8797 43.4966 47.9354 43.2179 48.0492C42.9393 48.1631 42.6868 48.3326 42.476 48.5475C42.2652 48.7624 42.1005 49.0181 41.9921 49.2989C41.8836 49.5797 41.8337 49.8797 41.8453 50.1805C41.8569 50.4813 41.9299 50.7766 42.0597 51.0482C42.1895 51.3198 42.3734 51.562 42.6002 51.7599L51.3902 60.5599C51.5102 60.6799 51.6402 60.7999 51.7502 60.9299C51.9494 61.1368 52.0607 61.4128 52.0607 61.6999C52.0607 61.9871 51.9494 62.2631 51.7502 62.4699C51.5459 62.6739 51.2689 62.7885 50.9802 62.7885C50.6915 62.7885 50.4146 62.6739 50.2102 62.4699C50.0702 62.3599 49.9602 62.2299 49.8302 62.1099L42.5002 54.7999C42.2 54.449 41.7983 54.1999 41.3505 54.087C40.9027 53.9742 40.4309 54.0032 40.0002 54.1699C39.6451 54.2966 39.329 54.5132 39.0826 54.7985C38.8362 55.0838 38.668 55.4282 38.5945 55.7979C38.521 56.1677 38.5445 56.5502 38.663 56.9081C38.7814 57.266 38.9906 57.587 39.2702 57.8399C41.4502 60.0499 43.6602 62.2499 45.8602 64.4499C46.2602 64.8499 46.6702 65.2399 47.0602 65.6599C47.2167 65.8157 47.3173 66.0188 47.3462 66.2377C47.3752 66.4566 47.3309 66.6789 47.2202 66.8699C47.1388 67.0639 46.9984 67.2272 46.8189 67.3367C46.6393 67.4462 46.4299 67.4963 46.2202 67.4799C45.9066 67.4174 45.618 67.2644 45.3902 67.0399C43.6702 65.3699 42.0002 63.6699 40.3102 61.9999C40.1156 61.8034 39.9085 61.6197 39.6902 61.4499C39.2585 61.1551 38.7352 61.0252 38.2157 61.0839C37.6962 61.1427 37.2152 61.3861 36.8602 61.7699C36.4982 62.1371 36.2847 62.625 36.2607 63.14C36.2367 63.655 36.4039 64.1607 36.7302 64.5599C36.9202 64.7999 37.1302 65.0399 37.3402 65.2599C39.3402 67.2599 41.3402 69.3199 43.3402 71.2599C45.3568 73.2389 48.0748 74.3391 50.9002 74.3199ZM55.7002 45.9999C56.7002 44.9999 57.8302 43.9999 58.8202 42.8599C59.0304 42.6522 59.1951 42.403 59.3038 42.1282C59.4125 41.8533 59.4628 41.5589 59.4515 41.2635C59.4402 40.9682 59.3676 40.6784 59.2383 40.4127C59.1089 40.1469 58.9257 39.911 58.7002 39.7199C58.485 39.5266 58.2337 39.3776 57.9609 39.2815C57.688 39.1854 57.3988 39.1441 57.1099 39.1599C56.8211 39.1756 56.5381 39.2483 56.2774 39.3735C56.0166 39.4988 55.7831 39.6743 55.5902 39.8899C54.6502 40.8099 53.7302 41.7399 52.8002 42.6699C52.7346 42.7396 52.6775 42.8168 52.6302 42.8999L55.7002 45.9999Z" fill="#282828"/>
<path d="M51.0501 24.9999C51.7466 24.2807 52.624 23.7625 53.5901 23.4999C54.483 23.3007 55.4163 23.3957 56.2507 23.7706C57.0852 24.1454 57.776 24.7801 58.2201 25.5799C58.702 26.3544 58.9097 27.2683 58.81 28.175C58.7103 29.0818 58.3088 29.9287 57.6701 30.5799C56.3001 32.0199 54.8701 33.3999 53.4701 34.8099C52.9601 35.3299 52.4701 35.8099 51.9301 36.3499C51.8254 36.4849 51.6912 36.5941 51.5379 36.6693C51.3845 36.7444 51.2159 36.7835 51.0451 36.7835C50.8743 36.7835 50.7057 36.7444 50.5524 36.6693C50.399 36.5941 50.2648 36.4849 50.1601 36.3499C48.2801 34.4699 46.3801 32.6099 44.5401 30.6899C43.7837 29.8673 43.3754 28.7837 43.401 27.6664C43.4267 26.5492 43.8843 25.4854 44.6777 24.6985C45.4712 23.9115 46.5387 23.4626 47.6561 23.4461C48.7735 23.4296 49.8538 23.8467 50.6701 24.6099L51.0501 24.9999ZM51.0501 34.1699C51.4901 33.6999 51.8801 33.2599 52.2901 32.8399C53.5001 31.6199 54.7501 30.4199 55.9301 29.1699C56.1161 28.975 56.2618 28.7453 56.3589 28.494C56.4561 28.2427 56.5027 27.9747 56.4962 27.7054C56.4897 27.4361 56.4302 27.1706 56.321 26.9243C56.2119 26.678 56.0553 26.4556 55.8601 26.2699C55.4688 25.8827 54.9406 25.6656 54.3901 25.6656C53.8396 25.6656 53.3114 25.8827 52.9201 26.2699C52.5401 26.6199 52.1901 27.0099 51.8201 27.3599C51.7178 27.4784 51.5911 27.5735 51.4488 27.6386C51.3064 27.7038 51.1517 27.7375 50.9951 27.7375C50.8385 27.7375 50.6838 27.7038 50.5414 27.6386C50.3991 27.5735 50.2724 27.4784 50.1701 27.3599C49.8301 27.0399 49.5101 26.6999 49.1701 26.3599C48.9833 26.1521 48.7571 25.9835 48.5046 25.8639C48.2522 25.7442 47.9785 25.6759 47.6994 25.6629C47.4203 25.6499 47.1414 25.6924 46.8789 25.788C46.6164 25.8836 46.3754 26.0304 46.1701 26.2199C45.9655 26.4125 45.8024 26.6449 45.691 26.9029C45.5795 27.1609 45.5221 27.4389 45.5221 27.7199C45.5221 28.0009 45.5795 28.2789 45.691 28.5369C45.8024 28.7949 45.9655 29.0273 46.1701 29.2199C47.7301 30.8999 49.3801 32.4999 51.0901 34.2099L51.0501 34.1699Z" fill="#282828"/>
</svg>
