<svg width="100" height="100" viewBox="0 0 100 100" fill="none" xmlns="http://www.w3.org/2000/svg">
<path d="M41.6696 43.2601L42.8396 53.4301C44.7333 51.8851 47.0196 50.8975 49.4427 50.5778C51.8657 50.2581 54.3299 50.619 56.5596 51.6201C57.0696 50.8601 57.5596 50.0801 58.0796 49.3801C59.5595 47.3995 61.4989 45.8085 63.7305 44.7441C65.9621 43.6797 68.419 43.1738 70.8896 43.2701C72.8196 43.3575 74.6587 44.1155 76.0899 45.4134C77.521 46.7113 78.4545 48.4678 78.7296 50.3801C78.7928 50.9212 78.8261 51.4654 78.8296 52.0101C78.8296 56.4601 78.8296 60.9101 78.8296 65.3601C78.901 67.5678 78.1163 69.7176 76.6396 71.3601C75.5752 72.5049 74.2311 73.3527 72.7396 73.8201C65.4413 76.2661 57.7451 77.3045 50.0596 76.8801C41.5939 76.5441 33.3082 74.3344 25.7996 70.4101C24.8319 69.9598 23.9136 69.4102 23.0596 68.7701C22.2873 68.1467 21.7087 67.3161 21.3917 66.3757C21.0746 65.4352 21.0323 64.4238 21.2696 63.4601C21.5454 61.9872 21.7191 60.497 21.7896 59.0001C21.9466 56.3578 22.4925 53.7531 23.4096 51.2701C25.1632 45.7211 27.6627 40.4361 30.8396 35.5601C32.8124 32.5795 35.1282 29.8408 37.7396 27.4001C39.064 26.1528 40.6458 25.2109 42.3735 24.6408C44.1012 24.0707 45.9329 23.8861 47.7396 24.1001C48.619 24.188 49.4722 24.4497 50.2496 24.8701C51.7225 25.6915 53.1389 26.6102 54.4896 27.6201C55.1573 28.1117 55.621 28.8317 55.7925 29.643C55.964 30.4543 55.8313 31.3003 55.4196 32.0201C55.3512 32.1278 55.321 32.2553 55.3337 32.3822C55.3464 32.5091 55.4013 32.6281 55.4896 32.7201C56.0016 33.3688 56.2613 34.1809 56.2209 35.0063C56.1805 35.8317 55.8425 36.6146 55.2696 37.2101C53.6296 38.9401 51.9196 40.6101 50.2696 42.2801C49.9246 42.6025 49.5186 42.8527 49.0756 43.0158C48.6325 43.179 48.1612 43.2518 47.6896 43.2301H41.6896L41.6696 43.2601ZM53.5596 34.2601L53.0796 34.7201C52.2696 35.5101 51.4996 36.3401 50.6496 37.0801C50.0745 37.57 49.3612 37.8688 48.6086 37.9351C47.856 38.0014 47.1015 37.8319 46.4496 37.4501C45.7479 37.0591 45.1922 36.4509 44.8658 35.717C44.5394 34.983 44.46 34.163 44.6396 33.3801C44.9858 32.2305 45.6856 31.2192 46.6396 30.4901C46.7519 30.3689 46.888 30.2723 47.0395 30.2062C47.1909 30.1401 47.3543 30.106 47.5196 30.106C47.6848 30.106 47.8482 30.1401 47.9997 30.2062C48.1511 30.2723 48.2872 30.3689 48.3996 30.4901C48.6171 30.7294 48.7326 31.0441 48.7214 31.3673C48.7102 31.6905 48.5732 31.9965 48.3396 32.2201C48.0496 32.5401 47.7296 32.8301 47.4296 33.1401C47.2769 33.2587 47.1514 33.4087 47.0617 33.5799C46.972 33.7511 46.9201 33.9396 46.9096 34.1327C46.899 34.3257 46.93 34.5187 47.0005 34.6987C47.071 34.8787 47.1794 35.0415 47.3182 35.176C47.4571 35.3105 47.6232 35.4136 47.8053 35.4784C47.9875 35.5432 48.1814 35.568 48.374 35.5514C48.5666 35.5347 48.7534 35.4768 48.9217 35.3817C49.09 35.2866 49.2359 35.1565 49.3496 35.0001C50.5496 33.8134 51.7462 32.6201 52.9396 31.4201C53.108 31.2941 53.241 31.1266 53.3256 30.934C53.4102 30.7413 53.4436 30.5301 53.4225 30.3208C53.4013 30.1114 53.3264 29.9111 53.205 29.7393C53.0836 29.5675 52.9198 29.4299 52.7296 29.3401C51.8496 28.7401 50.9596 28.1401 50.0596 27.5601C49.1592 26.9223 48.1004 26.5452 46.9996 26.4701C45.5225 26.3893 44.0451 26.624 42.6657 27.1585C41.2863 27.693 40.0366 28.5151 38.9996 29.5701C36.1684 32.3489 33.6989 35.4735 31.6496 38.8701C29.0111 43.3735 26.9069 48.1692 25.3796 53.1601C24.7591 54.8921 24.3887 56.7036 24.2796 58.5401C24.2385 60.471 24.0311 62.3948 23.6596 64.2901C23.5388 64.8894 23.6243 65.512 23.902 66.0566C24.1798 66.6012 24.6335 67.0359 25.1896 67.2901C31.886 71.122 39.3201 73.4875 46.9996 74.2301C51.0409 74.6051 55.1082 74.6051 59.1496 74.2301C63.6206 73.832 68.0246 72.878 72.2596 71.3901C72.9826 71.1323 73.6583 70.7573 74.2596 70.2801C75.0051 69.6873 75.5964 68.923 75.9829 68.0524C76.3695 67.1819 76.5399 66.2307 76.4796 65.2801C76.4796 60.8101 76.4796 56.3401 76.4796 51.8701C76.4762 51.4958 76.4528 51.1219 76.4096 50.7501C76.2419 49.4367 75.6366 48.2181 74.6913 47.291C73.746 46.3639 72.5159 45.7823 71.1996 45.6401C69.5489 45.5132 67.8895 45.7129 66.316 46.2276C64.7426 46.7424 63.286 47.5622 62.0296 48.6401C60.6833 49.7562 59.5776 51.1341 58.7796 52.6901C59.2596 53.0901 59.6996 53.4701 60.1596 53.8201C61.1596 54.5501 60.9896 55.3801 60.5696 55.8201C60.1496 56.2601 59.3396 56.3001 58.5696 55.5901C57.3511 54.4793 55.895 53.6616 54.3122 53.1995C52.7295 52.7374 51.0621 52.6431 49.4374 52.9239C47.8127 53.2046 46.2736 53.853 44.9378 54.8194C43.6019 55.7859 42.5046 57.0448 41.7296 58.5001C41.2631 59.4047 40.6187 60.2057 39.8352 60.8553C39.0516 61.5048 38.1449 61.9894 37.1696 62.2801C37.0258 62.3269 36.8742 62.3448 36.7234 62.3329C36.5727 62.3211 36.4258 62.2796 36.2911 62.2108C36.1564 62.1421 36.0366 62.0475 35.9385 61.9324C35.8405 61.8173 35.7661 61.684 35.7196 61.5401C35.6105 61.2574 35.6163 60.9432 35.736 60.6647C35.8556 60.3862 36.0794 60.1656 36.3596 60.0501C36.6996 59.8901 37.0596 59.7801 37.3596 59.5901C38.3939 59.016 39.2324 58.1452 39.7672 57.09C40.3019 56.0349 40.5082 54.8437 40.3596 53.6701C40.2396 51.4201 39.9396 49.1901 39.6896 46.9501C39.37 45.1959 39.2793 43.4077 39.4196 41.6301C39.5117 40.5371 39.9656 39.5061 40.7096 38.7001C40.9146 38.4758 41.1976 38.3383 41.5007 38.316C41.8038 38.2937 42.1039 38.3882 42.3396 38.5801C42.5798 38.7662 42.7374 39.0391 42.7786 39.3402C42.8197 39.6412 42.7411 39.9464 42.5596 40.1901L42.2596 40.7001C44.1496 40.7001 45.9296 40.7001 47.7096 40.7001C48.079 40.7045 48.4363 40.5687 48.7096 40.3201C50.3196 38.7701 51.8896 37.1801 53.4596 35.5901C53.6223 35.4013 53.7198 35.1652 53.7378 34.9167C53.7558 34.6681 53.6933 34.4204 53.5596 34.2101V34.2601Z" fill="#282828"/>
</svg>
