<svg width="100" height="100" viewBox="0 0 100 100" fill="none" xmlns="http://www.w3.org/2000/svg">
<path d="M52.346 30.6455C50.616 30.4555 48.916 30.2855 47.236 30.0655C45.116 29.7855 42.596 27.2255 42.506 25.3555C42.476 24.7355 42.596 24.3555 43.306 24.2455C43.966 24.1455 44.606 23.8955 45.256 23.5455C44.176 23.4055 43.096 23.2555 42.006 23.1455C41.876 23.1455 41.706 23.3655 41.566 23.5055C41.506 23.5655 41.486 23.6655 41.446 23.7455C40.546 25.5955 39.646 27.4455 38.696 29.4055C39.506 29.7555 40.256 30.0855 41.016 30.3955C42.126 30.8455 43.216 31.3255 44.356 31.7055C47.476 32.7555 47.776 37.3955 45.576 39.1455C44.776 39.7855 44.626 40.3255 45.056 41.2255C45.776 42.7455 45.376 44.1755 44.606 45.5855C44.336 46.0855 44.206 46.7555 44.246 47.3355C44.386 49.2655 43.686 50.8155 42.226 51.9955C41.486 52.5955 41.036 53.3055 40.736 54.1655C40.706 54.2455 40.656 54.3255 40.636 54.4155C39.996 56.8655 38.316 57.8755 35.906 57.7355C33.766 57.6055 31.626 57.4255 29.506 57.1355C28.776 57.0355 28.186 57.0755 27.556 57.4355C24.146 59.3555 20.726 61.2655 17.306 63.1655C16.946 63.3655 16.556 63.5455 16.156 63.6355C15.696 63.7455 15.246 63.6955 15.086 63.1155C14.936 62.5955 14.926 62.2255 15.526 61.8855C18.946 59.9855 22.336 58.0155 25.746 56.1055C26.326 55.7855 26.456 55.4655 26.276 54.8255C26.036 53.9655 25.836 53.0655 25.836 52.1855C25.836 51.5055 26.016 50.7155 26.406 50.1655C26.856 49.5155 26.806 49.1055 26.456 48.4555C25.386 46.4455 25.766 44.4455 26.746 42.5255C27.066 41.8955 27.186 41.3455 26.906 40.6755C26.136 38.8655 26.616 37.2155 27.726 35.7055C28.186 35.0755 28.426 34.4355 28.386 33.6355C28.356 32.9855 28.456 32.3255 28.546 31.6755C28.896 29.2555 30.386 27.6855 32.756 27.2955C33.026 27.2555 33.336 27.3455 33.606 27.4455C34.636 27.8255 35.656 28.2355 36.746 28.6555C37.766 26.5755 38.766 24.5455 39.756 22.5055C40.496 20.9555 40.576 20.8955 42.286 21.0655C45.946 21.4355 49.596 21.9555 53.256 22.1155C55.026 22.1955 56.846 21.6455 58.616 21.2855C60.286 20.9455 60.566 21.0655 61.096 22.6655C61.786 24.7555 62.516 26.8355 63.246 28.9555C65.816 28.4255 68.006 28.8255 69.456 31.2055C70.586 33.0555 70.446 34.4555 68.866 36.8155C70.156 38.1355 70.086 39.8155 69.956 41.5055C69.916 42.0355 70.046 42.3755 70.466 42.7255C71.826 43.8555 72.036 45.4055 71.896 47.0455C71.876 47.2555 71.846 47.4655 71.796 47.6655C71.566 48.6055 71.706 49.3655 72.376 50.1855C73.406 51.4455 73.226 52.9255 72.616 54.3455C72.406 54.8355 72.126 55.2955 71.836 55.8555C74.546 57.1955 77.216 58.5255 79.886 59.8555C81.546 60.6855 83.206 61.4955 84.846 62.3655C85.806 62.8755 85.806 63.6855 84.836 64.1755C84.596 64.2955 84.156 64.2055 83.876 64.0655C79.716 62.0355 75.556 59.9955 71.416 57.9255C70.586 57.5055 69.886 57.5155 69.056 57.9455C63.956 60.5755 58.846 63.1655 53.736 65.7755C53.456 65.9155 53.196 66.0955 52.776 66.3455C54.896 67.4655 56.866 68.5155 58.836 69.5455C63.626 72.0555 68.416 74.5555 73.206 77.0755C73.776 77.3755 74.276 77.7955 74.786 78.1455C74.126 79.5755 73.886 79.6655 72.546 78.9655C66.216 75.6655 59.886 72.3655 53.556 69.0555C52.766 68.6455 51.946 68.2655 51.176 67.8155C50.646 67.5055 50.236 67.5555 49.706 67.8655C43.336 71.5455 36.956 75.1955 30.586 78.8555C30.506 78.8955 30.426 78.9455 30.356 78.9855C29.366 79.5455 28.866 79.5155 28.496 78.8755C28.116 78.2355 28.346 77.8055 29.336 77.2155C42.216 69.6955 55.306 62.5755 68.636 55.8855C69.556 55.4255 70.246 54.7855 70.666 53.8355C71.136 52.7655 71.206 51.7655 70.266 50.7655C69.736 51.0155 69.156 51.2855 68.576 51.5555C68.006 51.8155 67.436 52.0855 66.886 52.3355C65.746 51.4055 65.786 50.7455 67.036 50.0255C67.476 49.7755 67.936 49.5155 68.416 49.3955C70.266 48.9155 70.486 45.0455 68.996 44.2255C68.736 44.0855 68.316 44.0055 68.056 44.1155C67.006 44.5355 65.986 45.0455 64.956 45.5155C64.656 45.6455 64.296 45.8855 64.036 45.8055C63.606 45.6755 63.166 45.4055 62.876 45.0655C62.776 44.9455 63.016 44.2955 63.256 44.1555C64.266 43.5855 65.296 43.0255 66.386 42.6355C68.206 41.9855 68.306 40.8555 67.776 38.9955C67.526 38.1055 66.846 37.8855 65.936 38.1955C63.806 38.9055 61.676 39.5755 59.566 40.3455C58.936 40.5755 58.596 40.3455 58.446 39.8655C58.346 39.5555 58.446 39.0455 58.646 38.8055C58.916 38.4855 59.366 38.2755 59.776 38.1355C61.946 37.3655 64.126 36.6555 66.286 35.8655C68.016 35.2355 68.626 33.5255 67.686 32.1255C67.046 31.1855 65.456 30.6255 64.146 30.9255C60.036 31.8555 55.936 32.7955 51.826 33.7155C51.396 33.8155 50.896 33.9455 50.506 33.8255C50.086 33.6955 49.746 33.2855 49.366 32.9955C49.716 32.6355 50.006 32.1855 50.426 31.9455C50.756 31.7455 51.236 31.7855 51.646 31.7355C52.296 31.6655 52.536 31.3355 52.316 30.6355H52.346V30.6455ZM45.066 35.5655C45.086 34.2955 44.266 33.7155 43.226 33.3155C40.246 32.1755 37.266 31.0255 34.276 29.8955C32.916 29.3855 31.896 29.5755 31.096 30.5055C30.206 31.5355 30.136 32.7255 30.586 33.9555C30.656 34.1555 30.936 34.3555 31.166 34.4355C34.956 35.8055 38.746 37.1555 42.546 38.5055C42.766 38.5855 43.116 38.6255 43.286 38.5055C44.316 37.8055 45.046 36.8955 45.066 35.5755V35.5655ZM38.496 51.5255C38.516 51.4455 38.536 51.3655 38.566 51.2855C40.426 51.3255 41.976 50.0855 42.166 48.3555C42.226 47.8155 42.236 47.3055 41.516 47.0855C37.466 45.8255 33.426 44.5355 29.376 43.2755C29.166 43.2055 28.816 43.2355 28.676 43.3755C27.056 44.9455 27.546 47.7255 29.596 48.6255C30.556 49.0455 31.506 49.4855 32.506 49.7955C34.496 50.4155 36.506 50.9555 38.506 51.5255H38.496ZM29.866 36.1855C29.546 36.6655 29.236 37.0755 29.006 37.5155C28.166 39.1255 28.716 40.6855 30.386 41.3955C34.096 43.0055 37.996 44.0155 41.926 44.8955C42.136 44.9455 42.476 44.8555 42.616 44.7055C43.956 43.2955 43.326 40.7455 41.506 40.1255C40.176 39.6655 38.856 39.2155 37.526 38.7655C34.986 37.9055 32.446 37.0555 29.866 36.1855ZM45.046 25.8755C45.546 27.2355 46.966 28.2055 48.396 28.2855C50.186 28.3855 51.966 28.5255 53.746 28.6355C54.276 28.6655 54.476 28.9155 54.436 29.4355C54.396 29.9555 54.436 30.4855 54.436 31.1255C56.786 30.5855 59.006 30.0655 61.296 29.5455C60.566 27.3855 59.866 25.3355 59.146 23.2155C54.416 24.1155 49.746 24.9955 45.056 25.8855L45.046 25.8755ZM39.106 53.4255C38.196 53.3255 37.456 53.3455 36.786 53.1455C34.376 52.3955 31.976 51.5955 29.596 50.7355C29.006 50.5255 28.666 50.6055 28.306 51.0655C27.206 52.4655 27.806 54.4855 29.506 55.0355C31.846 55.7855 34.236 55.8555 36.676 55.6755C38.156 55.5655 38.436 54.5355 39.106 53.4255Z" fill="black"/>
</svg>
