<svg width="100" height="100" viewBox="0 0 100 100" fill="none" xmlns="http://www.w3.org/2000/svg">
<path d="M26.2099 47.71C26.7499 47.15 27.2799 46.58 27.8299 46.03C27.9028 45.9235 27.9981 45.834 28.109 45.768C28.22 45.7019 28.344 45.6608 28.4725 45.6475C28.6009 45.6342 28.7307 45.649 28.8529 45.6909C28.975 45.7327 29.0866 45.8007 29.1799 45.89C29.5499 46.25 29.4999 46.78 29.0399 47.24C27.9665 48.3267 26.8865 49.4067 25.7999 50.48C25.7171 50.5996 25.6065 50.6974 25.4776 50.765C25.3487 50.8325 25.2054 50.8678 25.0599 50.8678C24.9144 50.8678 24.771 50.8325 24.6422 50.765C24.5133 50.6974 24.4027 50.5996 24.3199 50.48C23.2299 49.4 22.1299 48.31 21.0499 47.21C20.9478 47.1376 20.8627 47.0437 20.8006 46.935C20.7386 46.8263 20.701 46.7053 20.6905 46.5806C20.68 46.4558 20.6969 46.3303 20.74 46.2127C20.7831 46.0952 20.8513 45.9885 20.9399 45.9C21.0271 45.8113 21.1323 45.7424 21.2485 45.6979C21.3646 45.6533 21.4889 45.6342 21.6131 45.6418C21.7372 45.6494 21.8583 45.6835 21.9682 45.7418C22.078 45.8002 22.1741 45.8814 22.2499 45.98C22.8899 46.61 23.4999 47.26 24.2499 47.98C24.3399 47.35 24.3899 46.88 24.4699 46.41C26.0799 36.57 31.4699 29.61 40.7199 25.94C43.9584 24.6741 47.4203 24.0788 50.8957 24.1902C54.3711 24.3016 57.7877 25.1173 60.9385 26.588C64.0893 28.0587 66.9088 30.1538 69.2262 32.7462C71.5435 35.3387 73.3104 38.3746 74.4199 41.67C74.4199 41.78 74.4999 41.89 74.5199 42C74.5901 42.2096 74.5749 42.4384 74.4775 42.6368C74.3802 42.8352 74.2086 42.9873 73.9999 43.06C73.8975 43.0984 73.7885 43.1161 73.6792 43.1123C73.5699 43.1084 73.4624 43.083 73.363 43.0374C73.2636 42.9919 73.1741 42.9272 73.0998 42.8469C73.0255 42.7667 72.9677 42.6726 72.9299 42.57C72.7299 42.1 72.5899 41.57 72.3799 41.13C68.8399 32.82 62.6299 27.72 53.7299 26.25C47.7382 25.2939 41.6067 26.6428 36.5694 30.0251C31.5321 33.4075 27.9628 38.5722 26.5799 44.48C26.3299 45.48 26.1899 46.57 26.0099 47.62L26.2099 47.71Z" fill="#282828"/>
<path d="M73.7901 52.23C73.2501 52.79 72.7201 53.36 72.1701 53.91C71.6201 54.46 71.1701 54.43 70.8201 54.05C70.4701 53.67 70.5001 53.16 70.9601 52.7L74.2001 49.46C74.2814 49.3383 74.3915 49.2385 74.5206 49.1695C74.6497 49.1005 74.7938 49.0645 74.9401 49.0645C75.0865 49.0645 75.2306 49.1005 75.3597 49.1695C75.4887 49.2385 75.5988 49.3383 75.6801 49.46L78.9201 52.7C79.3901 53.18 79.4401 53.7 79.0701 54.06C78.7001 54.42 78.1801 54.4 77.7101 53.93C77.2401 53.46 76.4801 52.69 75.7601 51.93C75.6801 52.54 75.6201 53.01 75.5501 53.49C74.7844 59.1286 72.1754 64.3558 68.1294 68.3571C64.0834 72.3584 58.8276 74.9092 53.1808 75.6122C47.534 76.3152 41.8132 75.1309 36.9096 72.2438C32.006 69.3566 28.195 64.9288 26.0701 59.65C25.8201 59.01 25.8901 58.58 26.3001 58.33C26.7101 58.08 27.3001 58.26 27.6601 58.92C28.444 60.6487 29.3496 62.3195 30.3701 63.92C32.3368 66.7695 34.9133 69.1454 37.9126 70.8751C40.9119 72.6048 44.2587 73.6449 47.7101 73.92C53.499 74.4908 59.2982 72.9397 64.0292 69.5551C68.7602 66.1706 72.1009 61.1831 73.4301 55.52C73.6801 54.47 73.8201 53.39 74.0001 52.32L73.7901 52.23Z" fill="#282828"/>
<path d="M54.78 34.1799C53.301 33.6482 51.7417 33.3743 50.17 33.3699H49.92C48.3117 33.295 46.7059 33.5643 45.21 34.1599C41.44 35.5899 39 38.8999 39 44.1299V55.8599C39 61.1199 41.39 64.4499 45.21 65.8599C46.6838 66.3939 48.2426 66.6549 49.81 66.6299H50.09C51.6729 66.6936 53.2528 66.4455 54.74 65.8999C58.56 64.4699 60.96 61.1599 60.99 55.8999L61 44.1799C61 38.9299 58.61 35.5799 54.76 34.1799M51.94 51.9999V56.5599L48 56.4799V51.9999C43.53 51.8999 43.48 48.0599 43.48 48.0599H48V43.5199H52V48.0799C53.0896 48.102 54.1367 48.5069 54.9577 49.2236C55.7786 49.9404 56.3211 50.9233 56.49 51.9999H51.94Z" fill="#282828"/>
</svg>
