<svg width="100" height="100" viewBox="0 0 100 100" fill="none" xmlns="http://www.w3.org/2000/svg">
<path d="M37.0002 33.42C37.135 33.804 37.1861 34.2124 37.1498 34.6178C37.1136 35.0231 36.991 35.416 36.7902 35.77C36.4619 36.4222 35.9974 36.9963 35.4281 37.4535C34.8588 37.9107 34.1979 38.2403 33.4902 38.42C32.6702 38.69 32.6802 38.73 32.7402 39.05C33.0802 40.88 31.5702 43.42 29.4502 44.6C28.6302 45.05 28.7302 45.44 29.2402 46.44C29.49 46.8431 29.6439 47.2981 29.6902 47.77C29.6915 48.0167 29.6107 48.2568 29.4604 48.4523C29.3101 48.6479 29.0989 48.7878 28.8602 48.85C28.646 48.9128 28.4235 48.9431 28.2002 48.94C27.8084 48.9504 27.4189 48.8763 27.0583 48.7227C26.6976 48.5692 26.3743 48.3397 26.1102 48.05C25.4849 47.3629 24.7988 46.7337 24.0602 46.17C23.8609 47.4373 23.7539 48.7173 23.7402 50C23.7402 50.71 23.7902 51.42 23.8502 52.12C24.8502 51.67 26.7002 51.01 27.8502 51.34C29.0095 51.8515 30.0902 52.5249 31.0602 53.34C31.9628 54.0501 32.9504 54.6447 34.0002 55.11C34.329 55.1953 34.6631 55.2588 35.0002 55.3C36.1902 55.47 37.8202 55.69 38.0002 57.85C38.0486 58.6956 38.005 59.5439 37.8702 60.38C37.7133 61.0219 37.7445 61.6954 37.9602 62.32C38.0442 62.483 38.0913 62.6624 38.0982 62.8456C38.1052 63.0288 38.0717 63.2112 38.0002 63.38C37.7702 63.89 37.2002 64.05 36.6002 64.22C36.2514 64.3014 35.915 64.4292 35.6002 64.6C35.5502 64.6 35.1202 65.05 34.7902 68.3C34.6702 69.49 34.6102 70.63 34.5802 71.3C38.5002 74.1528 43.1338 75.8637 47.967 76.2431C52.8002 76.6225 57.6441 75.6554 61.9611 73.4493C66.2781 71.2431 69.8996 67.8841 72.4236 63.7449C74.9477 59.6057 76.2757 54.8481 76.2602 50C76.2504 47.9521 76.0054 45.9121 75.5302 43.92C75.1502 44.49 74.8002 45.02 74.5302 45.46C73.6302 46.89 73.1202 47.69 72.4202 47.69H72.3402C71.7302 47.69 71.3402 46.98 70.9202 46.01C70.5101 45.0545 69.9011 44.1973 69.1338 43.4955C68.3665 42.7937 67.4585 42.2635 66.4702 41.94C66.4702 42.04 66.5202 42.14 66.5502 42.24C66.7515 42.7548 66.8203 43.3118 66.7502 43.86C66.6302 44.46 65.8602 45.24 64.4502 46.16C63.5819 46.7665 62.6326 47.2479 61.6302 47.59C60.9802 47.74 60.6302 47.02 60.4602 46.79C60.1932 46.2434 59.9561 45.6826 59.7502 45.11C59.2739 43.5919 58.5213 42.1748 57.5302 40.93C56.469 39.69 55.0842 38.7691 53.5302 38.27C53.4705 38.2582 53.4136 38.2348 53.363 38.201C53.3123 38.1672 53.2688 38.1237 53.2349 38.0731C53.201 38.0225 53.1774 37.9657 53.1654 37.906C53.1535 37.8463 53.1534 37.7848 53.1652 37.725C53.1771 37.6653 53.2005 37.6085 53.2343 37.5578C53.2681 37.5071 53.3115 37.4636 53.3621 37.4297C53.4127 37.3958 53.4695 37.3722 53.5293 37.3602C53.589 37.3483 53.6505 37.3482 53.7102 37.36C55.4697 37.871 57.0411 38.8861 58.2302 40.28C59.3098 41.6149 60.1275 43.1417 60.6402 44.78C60.8547 45.4407 61.1503 46.0722 61.5202 46.66C62.3804 46.3294 63.1993 45.8998 63.9602 45.38C65.3702 44.45 65.8202 43.86 65.8502 43.67C65.8802 43.2756 65.8221 42.8793 65.6802 42.51C65.5402 42.05 65.4002 41.61 65.6802 41.27C65.7561 41.1717 65.8552 41.0936 65.9686 41.043C66.0821 40.9924 66.2064 40.9708 66.3302 40.98C67.3302 40.98 70.4502 42.42 71.8202 45.65C72.2002 46.54 72.4002 46.72 72.4602 46.76C72.9675 46.2388 73.3955 45.6458 73.7302 45C74.1302 44.38 74.6302 43.6 75.2302 42.75C73.7751 37.6591 70.8212 33.1241 66.7529 29.7353C62.6846 26.3466 57.6903 24.261 52.4202 23.75C51.7802 24.81 49.3302 28.65 47.7002 29.26C47.2002 29.44 46.4902 29.67 45.7002 29.9C44.2102 30.37 41.7002 31.15 41.3502 31.63C40.6384 32.848 40.2334 34.2208 40.1702 35.63C40.4409 36.4871 40.7752 37.3227 41.1702 38.13C41.418 38.6987 41.7158 39.2442 42.0602 39.76C42.4423 38.6108 43.2179 37.6333 44.2502 37C45.5535 36.3066 47.0666 36.1179 48.5002 36.47C48.6052 36.5139 48.6906 36.5942 48.7408 36.6962C48.791 36.7982 48.8026 36.915 48.7733 37.0249C48.744 37.1347 48.6758 37.2302 48.5815 37.2937C48.4872 37.3572 48.373 37.3843 48.2602 37.37C47.0626 37.0833 45.8016 37.2396 44.7102 37.81C43.8094 38.3856 43.1566 39.2774 42.8802 40.31C43.8558 40.4982 44.8615 40.4606 45.8202 40.2C46.0388 40.108 46.2801 40.0846 46.5122 40.1328C46.7444 40.181 46.9564 40.2986 47.1202 40.47V39.07H53.8502V42.27C54.8002 42.75 55.5302 44.27 56.3002 45.95C56.5702 46.53 56.8602 47.14 57.1502 47.69C58.2686 48.1793 59.2479 48.9387 60.0002 49.9C60.8702 50.08 61.6902 50.24 61.9302 50.9C62.0802 51.35 61.9302 51.9 61.3702 52.61C61.4713 52.9373 61.5481 53.2715 61.6002 53.61H60.5502C58.6802 55.82 58.3702 56.61 58.7402 59.25C58.7402 59.25 58.7402 59.25 58.7402 59.31C58.7301 59.6963 58.6352 60.0756 58.4624 60.4211C58.2896 60.7667 58.0431 61.0702 57.7402 61.31C57.4121 61.5638 57.171 61.9132 57.0502 62.31C56.8911 63.0406 56.485 63.694 55.9002 64.16C55.5791 64.4384 55.3173 64.7785 55.1302 65.16C54.8367 65.9168 54.4359 66.6274 53.9402 67.27C53.6723 67.6674 53.3164 67.9977 52.9002 68.2352C52.484 68.4728 52.0186 68.6114 51.5402 68.64C50.3902 68.64 49.3702 67.38 48.5402 64.89C48.1376 63.7276 47.8332 62.5334 47.6302 61.32H47.1102V56.62C47.1102 56.62 47.0502 56.53 47.0102 56.49C46.9827 56.458 46.9623 56.4205 46.9502 56.38C46.7492 55.845 46.7492 55.2551 46.9502 54.72C47.0902 54.17 47.1502 53.87 46.6502 53.56C45.9103 53.5315 45.1758 53.4208 44.4602 53.23C44.2302 53.29 44.0002 53.35 43.7602 53.43C43.2279 53.678 42.6436 53.7938 42.0569 53.7677C41.4702 53.7416 40.8985 53.5743 40.3902 53.28C39.5509 52.8643 38.8077 52.2777 38.2084 51.5579C37.6091 50.838 37.167 50.0008 36.9102 49.1C36.8009 48.4696 36.834 47.8228 37.007 47.2068C37.18 46.5908 37.4886 46.0213 37.9102 45.54C40.0002 43 41.1302 41.4 41.6202 40.72C41.0846 40.0944 40.6556 39.3849 40.3502 38.62C39.9289 37.7311 39.5745 36.8118 39.2902 35.87C39.0302 34.87 39.9802 31.92 40.6302 31.06C41.1302 30.39 42.8702 29.81 45.4502 29C46.2002 28.77 46.9002 28.55 47.3702 28.37C48.3702 28 50.1802 25.53 51.3702 23.69C50.8802 23.69 50.3702 23.61 49.8902 23.61C43.7881 23.5871 37.879 25.7472 33.2302 29.7C34.3602 30.33 36.4002 31.68 37.0002 33.42ZM50.8802 37.93C50.7398 37.93 50.6025 37.8884 50.4858 37.8104C50.369 37.7324 50.278 37.6215 50.2243 37.4918C50.1705 37.362 50.1565 37.2193 50.1839 37.0815C50.2113 36.9438 50.2789 36.8173 50.3782 36.718C50.4775 36.6187 50.604 36.5511 50.7417 36.5237C50.8794 36.4963 51.0222 36.5104 51.1519 36.5641C51.2817 36.6178 51.3926 36.7088 51.4706 36.8256C51.5486 36.9423 51.5902 37.0796 51.5902 37.22C51.5902 37.3141 51.5716 37.4073 51.5352 37.4941C51.4989 37.5809 51.4457 37.6596 51.3788 37.7257C51.3118 37.7917 51.2323 37.8438 51.145 37.8789C51.0577 37.914 50.9643 37.9314 50.8702 37.93H50.8802ZM61.2202 60.26C61.5643 59.8778 61.8599 59.4546 62.1002 59C62.3727 58.5483 62.6733 58.1141 63.0002 57.7C63.21 57.4433 63.4903 57.2535 63.8065 57.154C64.1228 57.0545 64.4613 57.0496 64.7802 57.14C65.097 57.234 65.3802 57.4168 65.5964 57.6666C65.8126 57.9165 65.9528 58.223 66.0002 58.55C66.1487 59.684 65.979 60.8369 65.5102 61.88C64.2602 64.82 63.1002 66.77 61.5102 66.77C61.2302 66.77 60.7202 66.65 60.4202 65.85C59.9102 64.45 60.2602 61.1 61.2202 60.26Z" fill="#282828"/>
<path d="M61.5202 65.84C62.7002 65.84 63.8302 63.53 64.6902 61.52C65.0865 60.6329 65.2317 59.654 65.1102 58.69C65.0899 58.5376 65.0249 58.3945 64.9235 58.2788C64.8221 58.1632 64.6887 58.0801 64.5402 58.04C64.4672 58.0303 64.3932 58.0303 64.3202 58.04C64.2065 58.0418 64.0947 58.0688 63.9927 58.1189C63.8907 58.169 63.801 58.2411 63.7302 58.33C63.4273 58.7274 63.1468 59.1414 62.8902 59.57C62.5985 60.0895 62.2423 60.5699 61.8302 61C61.2702 61.49 60.8302 64.34 61.3102 65.55C61.3902 65.74 61.4802 65.84 61.5202 65.84Z" fill="#282828"/>
<path d="M50.8701 37C50.8091 37 50.7506 37.0242 50.7075 37.0674C50.6644 37.1105 50.6401 37.169 50.6401 37.23C50.6401 37.291 50.6644 37.3495 50.7075 37.3926C50.7506 37.4358 50.8091 37.46 50.8701 37.46C50.9311 37.46 50.9896 37.4358 51.0328 37.3926C51.0759 37.3495 51.1001 37.291 51.1001 37.23C51.1001 37.169 51.0759 37.1105 51.0328 37.0674C50.9896 37.0242 50.9311 37 50.8701 37Z" fill="#282828"/>
<path d="M60.7202 51.05C60.8102 51.22 60.8902 51.38 60.9702 51.55C61.0253 51.4526 61.0529 51.342 61.0502 51.23C61.0002 51.16 60.8902 51.1 60.7202 51.05Z" fill="#282828"/>
<path d="M37.79 48.92C38.0188 49.6863 38.4033 50.3972 38.9195 51.008C39.4357 51.6189 40.0725 52.1166 40.79 52.47C41.1127 52.6702 41.4773 52.7934 41.8554 52.8298C42.2335 52.8662 42.6149 52.815 42.97 52.68C41.9038 52.1076 41.0026 51.2708 40.3529 50.2499C39.7032 49.229 39.3269 48.0582 39.26 46.85H47.06V42.4C46.8341 42.0997 46.6647 41.7609 46.56 41.4C46.4 40.93 46.4 40.93 46.01 41.03C44.8371 41.3469 43.6043 41.3709 42.42 41.1C41.99 41.7 40.81 43.33 38.58 46.1C38.2465 46.4815 38.0025 46.9326 37.8658 47.4206C37.7291 47.9085 37.7032 48.4208 37.79 48.92Z" fill="#282828"/>
<path d="M35.0799 63.7999C35.4701 63.5855 35.8871 63.424 36.3199 63.3199C36.6099 63.2399 37.0799 63.0999 37.1299 62.9899C37.1799 62.8799 37.1299 62.8799 37.0699 62.6999C36.7728 61.9211 36.717 61.0709 36.9099 60.2599C37.0186 59.4816 37.0487 58.6943 36.9999 57.9099C36.9099 56.5799 36.1999 56.4199 34.8499 56.2299C34.4686 56.1781 34.0912 56.1012 33.7199 55.9999C32.5608 55.4941 31.4825 54.8202 30.5199 53.9999C29.6293 53.2747 28.6518 52.6633 27.6099 52.1799C26.7641 52.0816 25.9075 52.2128 25.1299 52.5599C24.6499 52.7299 24.2399 52.9099 23.9399 53.0499C24.7492 59.9281 28.2338 66.2112 33.6399 70.5399C33.6399 69.8799 33.7399 68.9999 33.8299 68.0999C34.1699 64.7699 34.6499 64.0499 35.0799 63.7999Z" fill="#282828"/>
<path d="M26.85 47.4901C27.0718 47.7038 27.3435 47.8587 27.6403 47.9407C27.9372 48.0228 28.2499 48.0295 28.55 47.9601C28.74 47.9001 28.74 47.8201 28.74 47.7701C28.6865 47.4508 28.571 47.145 28.4 46.8701C27.99 46.0601 27.3 44.7101 28.98 43.7801C30.66 42.8501 32.08 40.6601 31.81 39.2201C31.59 38.0501 32.48 37.7601 33.19 37.5301C33.7909 37.3916 34.354 37.1227 34.8396 36.7426C35.3252 36.3624 35.7213 35.8802 36 35.3301C36.1376 35.0876 36.2214 34.8182 36.2456 34.5404C36.2697 34.2625 36.2337 33.9828 36.14 33.7201C35.61 32.1401 33.45 30.8501 32.54 30.3601C28.2151 34.2214 25.2867 39.4032 24.21 45.1001C25.1642 45.8107 26.0483 46.611 26.85 47.4901Z" fill="#282828"/>
<path d="M53.8301 43.49V46.91C54.5272 46.9594 55.2175 47.0801 55.8901 47.27L55.4701 46.37C55.0407 45.3478 54.4901 44.3808 53.8301 43.49Z" fill="#282828"/>
<path d="M53.8101 53.6201V61.4501L48.5801 61.3801C48.7776 62.4841 49.0618 63.5708 49.4301 64.6301C50.1101 66.6301 50.9101 67.7601 51.5801 67.7601C53.0701 67.7601 54.1101 65.3501 54.3001 64.8701C54.5321 64.3647 54.8737 63.9172 55.3001 63.5601C55.7371 63.2264 56.0475 62.7538 56.1801 62.2201C56.3295 61.6056 56.6818 61.0595 57.1801 60.6701C57.3854 60.5192 57.556 60.3259 57.6802 60.1033C57.8044 59.8808 57.8794 59.6342 57.9001 59.3801C57.5201 56.7201 57.9001 55.6201 59.4401 53.6501L53.8101 53.6201Z" fill="#282828"/>
</svg>
