<svg width="100" height="100" viewBox="0 0 100 100" fill="none" xmlns="http://www.w3.org/2000/svg">
<path d="M10.4599 71.1099H7.68994C8.07994 57.1099 13.6199 45.7099 24.7999 37.2999C31.3283 32.3599 39.1679 29.4539 47.3388 28.9452C55.5098 28.4365 63.6493 30.3477 70.7399 34.4399C84.6799 42.5699 91.6099 54.9999 92.3099 71.1399H89.4799C89.0799 58.0399 83.8799 47.3599 73.3899 39.4699C66.1808 34.0036 57.2632 31.278 48.2299 31.7799C27.2299 32.6399 10.2599 50.3099 10.4599 71.1099Z" fill="#282828"/>
<path d="M81.8099 71.1H78.9999C78.7399 61.85 75.1599 54.23 67.9399 48.45C62.4379 43.9863 55.4482 41.7744 48.3799 42.26C32.8999 43.07 20.7999 56.12 20.9999 71.07H18.1699C18.5399 60.2 22.8299 51.3 31.8399 45.18C42.8399 37.71 54.5399 37.18 66.0599 43.87C76.3499 49.81 81.2799 59.2 81.8099 71.1Z" fill="#282828"/>
<path d="M70.1998 71.0999H67.3798C67.3689 68.4559 66.7532 65.8493 65.5798 63.4799C64.4063 61.1105 62.7063 59.041 60.6098 57.4299C57.324 54.8226 53.1851 53.5322 48.9998 53.8099C44.5773 54.0612 40.4162 55.9859 37.3611 59.1933C34.306 62.4007 32.5858 66.6505 32.5498 71.0799H29.7798C30.0298 64.0799 32.7798 58.4199 38.6198 54.5399C45.4298 49.9899 52.6698 49.6499 59.8298 53.6199C66.5698 57.3499 69.8098 63.3599 70.1998 71.0999Z" fill="#282828"/>
<path d="M42.3098 71.1001H39.5698C39.5458 69.3902 39.9606 67.7026 40.7747 66.1987C41.5888 64.6948 42.7749 63.4248 44.2198 62.5101C45.8491 61.3475 47.7925 60.706 49.7938 60.6703C51.7951 60.6346 53.7601 61.2063 55.4298 62.3101C56.9608 63.2057 58.2289 64.4887 59.1067 66.0299C59.9844 67.5712 60.4407 69.3164 60.4298 71.0901H57.6198C57.599 69.8999 57.3028 68.7308 56.7546 67.6742C56.2064 66.6177 55.4209 65.7024 54.4598 65.0001C53.0869 63.9747 51.4018 63.4554 49.6898 63.5301C46.5798 63.6401 42.7198 65.8601 42.3098 71.1001Z" fill="#282828"/>
</svg>
