<svg width="100" height="100" viewBox="0 0 100 100" fill="none" xmlns="http://www.w3.org/2000/svg">
<path d="M32.6498 20.3799H31.8198V79.9099H32.6498V20.3799Z" fill="#282828" stroke="#282828" stroke-linecap="round" stroke-linejoin="round"/>
<path d="M38.5898 49.57C36.461 49.6014 34.3429 49.263 32.3298 48.57L32.5998 47.79C34.5264 48.4699 36.5569 48.8083 38.5998 48.79C42.1262 48.6168 45.6184 48.0158 48.9998 47C54.8898 45.53 60.4398 44.14 65.9998 46.93L67.3298 47.59V23L66.8198 22.75C60.6398 19.66 54.4898 21.19 48.5498 22.68C42.9998 24 37.6398 25.36 32.2998 23.05L32.6298 22.29C37.7098 24.5 42.8898 23.2 48.3698 21.84C54.4698 20.32 60.7598 18.74 67.2198 21.97L68.2198 22.45V49L65.6998 47.74C60.3998 45.09 54.9798 46.44 49.2498 47.87C45.7792 48.8697 42.1992 49.4406 38.5898 49.57Z" fill="#282828" stroke="#282828" stroke-linecap="round" stroke-linejoin="round"/>
<path d="M52.0599 27.0501C51.4179 26.8206 50.7416 26.7023 50.0599 26.7001H49.9999C49.316 26.6749 48.6346 26.7942 47.9999 27.0501C47.1458 27.3741 46.4213 27.9689 45.9373 28.7437C45.4533 29.5184 45.2365 30.4304 45.3199 31.3401V36.4101C45.2274 37.325 45.4414 38.2447 45.9283 39.0248C46.4152 39.8049 47.1474 40.4012 48.0099 40.7201C48.6486 40.9606 49.3276 41.0761 50.0099 41.0601H49.9999C50.6809 41.0832 51.3601 40.9746 51.9999 40.7401C52.8557 40.4145 53.5817 39.8182 54.0673 39.042C54.5529 38.2657 54.7715 37.352 54.6899 36.4401V31.3701C54.7788 30.4531 54.5623 29.5325 54.074 28.7512C53.5858 27.97 52.8531 27.372 51.9899 27.0501M50.7599 34.7401V36.7401H49.0799V34.7401C48.8352 34.7692 48.5871 34.7475 48.3512 34.6764C48.1153 34.6052 47.8967 34.4861 47.7089 34.3265C47.5212 34.1669 47.3684 33.9703 47.2602 33.7489C47.1519 33.5276 47.0905 33.2862 47.0799 33.0401H49.0799V31.0401H50.7699V33.0401C51.2522 33.0346 51.7203 33.2037 52.0878 33.5161C52.4553 33.8285 52.6976 34.2632 52.7699 34.7401H50.7599Z" fill="#282828"/>
</svg>
