<svg width="668" height="685" viewBox="0 0 668 685" fill="none" xmlns="http://www.w3.org/2000/svg">
<path d="M132.66 254.232C139.674 250.011 146.613 245.661 153.701 241.568C154.733 240.684 155.944 240.035 157.252 239.666C158.56 239.296 159.932 239.216 161.274 239.431C162.616 239.645 163.895 240.149 165.023 240.907C166.15 241.666 167.099 242.66 167.804 243.822C170.584 248.489 168.633 253.74 162.704 257.162C148.835 265.284 134.917 273.32 120.948 281.27C119.781 282.261 118.391 282.953 116.897 283.289C115.403 283.624 113.85 283.592 112.371 283.196C110.892 282.8 109.531 282.051 108.405 281.013C107.279 279.976 106.422 278.681 105.906 277.239C97.7681 263.294 89.5561 249.219 81.5747 235.097C80.7342 234.083 80.1253 232.897 79.7905 231.623C79.4557 230.349 79.4031 229.017 79.6364 227.721C79.8697 226.424 80.3832 225.194 81.1411 224.117C81.899 223.039 82.883 222.14 84.0244 221.482C85.1525 220.819 86.4098 220.405 87.7115 220.268C89.0132 220.132 90.329 220.276 91.5703 220.691C92.8115 221.106 93.9493 221.783 94.9069 222.675C95.8645 223.567 96.6197 224.654 97.1215 225.863C101.911 234.01 106.341 242.278 112.003 251.638C114.633 245.48 116.422 240.839 118.515 236.28C161.678 140.65 235.418 84.5871 339.431 72.4769C375.796 68.4301 412.603 71.8076 447.624 82.4049C482.645 93.0022 515.15 110.599 543.17 134.128C571.191 157.658 594.142 186.631 610.635 219.292C627.128 251.953 636.82 287.622 639.121 324.139C638.822 325.257 639.335 326.593 639.239 327.766C639.382 330.087 638.604 332.371 637.074 334.123C635.545 335.874 633.386 336.952 631.067 337.123C629.921 337.235 628.765 337.118 627.665 336.781C626.565 336.444 625.542 335.893 624.655 335.159C623.769 334.426 623.036 333.524 622.499 332.507C621.961 331.489 621.631 330.375 621.526 329.229C620.773 323.907 620.793 318.139 619.857 313.095C606.508 218.99 557.279 150.24 470.822 111.06C412.525 85.0243 346.531 82.0354 286.119 102.695C225.708 123.354 175.363 166.128 145.217 222.41C139.953 231.893 135.561 242.591 130.872 252.773L132.66 254.232Z" fill="#7D1B49" fill-opacity="0.05"/>
<path d="M603.958 429.758C596.944 433.979 590.004 438.33 582.916 442.422C575.828 446.514 571.336 444.984 568.813 440.168C566.291 435.353 567.985 430.251 573.913 426.828L615.669 402.72C616.827 401.705 618.217 400.991 619.717 400.641C621.217 400.291 622.78 400.317 624.267 400.715C625.755 401.114 627.121 401.873 628.245 402.926C629.37 403.979 630.217 405.293 630.712 406.751L654.819 448.507C658.289 454.666 657.381 460.087 652.64 462.738C647.899 465.39 642.668 463.77 639.171 457.713C635.674 451.656 630.046 441.76 624.798 432.074C622.323 438.056 620.434 442.67 618.415 447.358C595.276 502.585 554.521 548.608 502.5 578.259C450.478 607.91 390.111 619.523 330.801 611.289C271.492 603.056 216.571 575.438 174.593 532.738C132.615 490.038 105.938 434.653 98.718 375.212C97.92 368.026 99.8025 363.846 104.651 362.422C109.499 360.998 115.005 364.434 116.867 372.123C120.127 391.828 124.781 411.277 130.794 430.324C143.023 464.643 162.741 495.809 188.515 521.558C214.29 547.307 245.474 566.994 279.805 579.19C337.09 600.757 400.258 600.786 457.562 579.27C514.866 557.753 562.405 516.158 591.338 462.218C596.739 452.226 601.103 441.63 605.847 431.245L603.958 429.758Z" fill="#7D1B49" fill-opacity="0.05"/>
<path d="M459.896 194.52C446.311 185.087 431.209 178.056 415.246 173.731L412.705 173.051C396.562 167.909 379.507 166.273 362.68 168.253C320.467 172.52 286.652 199.518 272.408 252.676L240.462 371.901C226.137 425.364 241.36 465.72 276.346 490.455C289.872 499.897 305.005 506.794 321.004 510.809L323.85 511.572C339.765 516.53 356.499 518.312 373.102 516.816C415.823 512.685 449.232 485.578 463.862 432.197L495.883 313.101C510.181 259.739 495.012 219.18 459.693 194.465M382.498 367.909L370.079 414.258L330.25 402.714L342.452 357.179C297.29 343.989 307.24 304.822 307.24 304.822L353.182 317.132L365.547 270.987L406.203 281.881L393.784 328.23C404.799 331.421 414.339 338.388 420.731 347.909C427.123 357.431 429.961 368.898 428.745 380.301L382.498 367.909Z" fill="#7D1B49" fill-opacity="0.05"/>
</svg>
