<svg width="339" height="307" viewBox="0 0 339 307" fill="none" xmlns="http://www.w3.org/2000/svg">
<path d="M164.82 50.7123C155.749 49.7134 146.835 48.8196 138.027 47.6629C126.911 46.1908 113.697 32.7313 113.225 22.8995C113.068 19.6398 113.697 17.6419 117.42 17.0635C120.881 16.5378 124.236 15.2234 127.645 13.3832C121.982 12.6472 116.319 11.8585 110.603 11.2801C109.922 11.2801 109.03 12.4368 108.296 13.1729C107.982 13.4883 107.877 14.0141 107.667 14.4347C102.948 24.1613 98.229 33.888 93.2478 44.1929C97.4949 46.0331 101.428 47.768 105.412 49.3979C111.233 51.7638 116.948 54.2875 122.925 56.2854C139.285 61.8059 140.858 86.2013 129.322 95.4021C125.128 98.767 124.341 101.606 126.596 106.338C130.371 114.33 128.274 121.848 124.236 129.261C122.821 131.89 122.139 135.413 122.349 138.462C123.083 148.609 119.412 156.759 111.757 162.963C107.877 166.117 105.517 169.85 103.944 174.372C103.787 174.792 103.525 175.213 103.42 175.686C100.064 188.567 91.2553 193.878 78.6187 193.141C67.3978 192.458 56.1769 191.512 45.0608 189.987C41.2331 189.461 38.1395 189.671 34.8362 191.564C16.9561 201.659 -0.976343 211.701 -18.9088 221.69C-20.7964 222.742 -22.8414 223.688 -24.9387 224.161C-27.3507 224.74 -29.7102 224.477 -30.5492 221.427C-31.3357 218.694 -31.3881 216.748 -28.2421 214.961C-10.3096 204.971 7.46555 194.614 25.3456 184.571C28.3868 182.889 29.0684 181.207 28.1246 177.842C26.8662 173.32 25.8175 168.588 25.8175 163.962C25.8175 160.386 26.7613 156.233 28.8062 153.341C31.1658 149.924 30.9036 147.768 29.0684 144.351C23.458 133.783 25.4505 123.268 30.589 113.173C32.2669 109.861 32.8961 106.969 31.4279 103.446C27.3905 93.93 29.9074 85.2549 35.7275 77.3159C38.1395 74.0036 39.3979 70.6387 39.1882 66.4326C39.0309 63.0152 39.5552 59.5451 40.0272 56.1277C41.8623 43.4042 49.675 35.1498 62.1019 33.0993C63.5176 32.889 65.1431 33.3622 66.5588 33.8879C71.9595 35.8858 77.3078 38.0415 83.0231 40.2497C88.3714 29.3138 93.6148 18.6408 98.8058 7.91525C102.686 -0.234072 103.105 -0.549543 112.072 0.344253C131.263 2.28957 150.401 5.02356 169.592 5.86478C178.873 6.28539 188.416 3.39368 197.697 1.50094C206.453 -0.286655 207.921 0.344286 210.7 8.75649C214.318 19.7449 218.146 30.6807 221.974 41.8269C235.449 39.0404 246.932 41.1434 254.535 53.6566C260.46 63.3832 259.726 70.7439 251.442 83.1519C258.206 90.0919 257.839 98.9248 257.157 107.81C256.947 110.597 257.629 112.384 259.831 114.224C266.962 120.166 268.063 128.315 267.329 136.937C267.224 138.042 267.067 139.146 266.805 140.197C265.599 145.139 266.333 149.135 269.846 153.446C275.247 160.071 274.303 167.852 271.104 175.318C270.003 177.894 268.535 180.313 267.015 183.257C281.224 190.302 295.224 197.295 309.224 204.288C317.928 208.651 326.632 212.91 335.231 217.484C340.265 220.166 340.265 224.424 335.179 227.001C333.92 227.631 331.613 227.158 330.145 226.422C308.333 215.749 286.52 205.024 264.812 194.14C260.46 191.932 256.79 191.985 252.438 194.245C225.696 208.073 198.903 221.69 172.109 235.413C170.641 236.149 169.277 237.095 167.075 238.41C178.191 244.298 188.521 249.819 198.85 255.234C223.966 268.431 249.082 281.575 274.198 294.824C277.187 296.401 279.808 298.609 282.483 300.45C279.022 307.968 277.763 308.441 270.737 304.761C237.547 287.411 204.356 270.061 171.165 252.658C167.023 250.502 162.723 248.504 158.686 246.138C155.907 244.508 153.757 244.771 150.978 246.401C117.577 265.749 84.1242 284.94 50.7237 304.182C50.3042 304.393 49.8848 304.656 49.5177 304.866C44.3267 307.81 41.705 307.652 39.765 304.288C37.7725 300.923 38.9785 298.662 44.1694 295.56C111.705 256.023 180.341 218.588 250.236 183.415C255.06 180.996 258.677 177.631 260.88 172.637C263.344 167.011 263.711 161.753 258.782 156.496C256.003 157.81 252.962 159.23 249.921 160.649C246.932 162.016 243.943 163.436 241.06 164.75C235.082 159.861 235.292 156.391 241.846 152.605C244.153 151.291 246.565 149.924 249.082 149.293C258.782 146.769 259.936 126.422 252.123 122.111C250.76 121.375 248.558 120.954 247.194 121.533C241.689 123.741 236.341 126.422 230.94 128.893C229.367 129.577 227.479 130.839 226.116 130.418C223.861 129.734 221.554 128.315 220.034 126.527C219.509 125.896 220.768 122.479 222.026 121.743C227.322 118.746 232.723 115.802 238.438 113.751C247.981 110.334 248.505 104.393 245.726 94.6135C244.415 89.9342 240.85 88.7775 236.078 90.4074C224.91 94.1403 213.741 97.6629 202.678 101.711C199.374 102.921 197.592 101.711 196.805 99.1876C196.281 97.5578 196.805 94.8764 197.854 93.6146C199.27 91.9321 201.629 90.828 203.779 90.092C215.157 86.0436 226.588 82.3107 237.914 78.1571C246.985 74.8448 250.183 65.8543 245.254 58.4937C241.899 53.5515 233.562 50.6072 226.693 52.1844C205.142 57.074 183.644 62.0163 162.094 66.8533C159.839 67.379 157.217 68.0625 155.173 67.4316C152.97 66.7481 151.188 64.5925 149.195 63.0678C151.03 61.175 152.551 58.8091 154.753 57.5472C156.483 56.4957 159 56.7061 161.15 56.4432C164.558 56.0752 165.817 54.3401 164.663 50.6598H164.82V50.7123ZM126.648 76.5798C126.753 69.9026 122.454 66.8532 117 64.7502C101.375 58.7565 85.7497 52.7102 70.0719 46.7691C62.9409 44.0877 57.5926 45.0867 53.3979 49.9763C48.7312 55.3916 48.3642 61.6482 50.7237 68.115C51.0907 69.1666 52.5589 70.2182 53.7649 70.6388C73.6374 77.8417 93.51 84.9395 113.435 92.0373C114.588 92.4579 116.424 92.6682 117.315 92.0373C122.716 88.3569 126.543 83.5725 126.648 76.6325V76.5798ZM92.1991 160.492C92.304 160.071 92.4088 159.65 92.5661 159.23C102.319 159.44 110.446 152.921 111.442 143.825C111.757 140.986 111.809 138.304 108.034 137.148C86.7984 130.523 65.615 123.741 44.3792 117.116C43.2781 116.748 41.4429 116.906 40.7088 117.642C32.2145 125.896 34.7837 140.513 45.5327 145.244C50.5664 147.453 55.5476 149.766 60.7911 151.396C71.2254 154.656 81.7647 157.495 92.2515 160.492H92.1991ZM46.9485 79.8396C45.2706 82.3633 43.6451 84.5189 42.4391 86.8323C38.0346 95.297 40.9185 103.499 49.675 107.232C69.1281 115.697 89.5774 121.007 110.184 125.633C111.285 125.896 113.068 125.423 113.802 124.635C120.828 117.221 117.525 103.814 107.982 100.555C101.008 98.1362 94.0867 95.7702 87.113 93.4043C73.7947 88.8827 60.4765 84.4137 46.9485 79.8396ZM126.543 25.6335C129.165 32.7839 136.611 37.8837 144.109 38.3043C153.495 38.8301 162.828 39.5662 172.161 40.1445C174.94 40.3022 175.989 41.6167 175.779 44.3506C175.569 47.0846 175.779 49.8712 175.779 53.236C188.101 50.3969 199.742 47.6629 211.749 44.929C207.921 33.5725 204.251 22.7944 200.476 11.6482C175.674 16.3801 151.188 21.0068 126.596 25.686L126.543 25.6335ZM95.3976 170.481C90.6261 169.955 86.746 170.06 83.2329 169.009C70.5962 165.066 58.0121 160.86 45.5327 156.338C42.4391 155.234 40.6563 155.655 38.7687 158.073C33.001 165.434 36.147 176.054 45.0608 178.946C57.3304 182.889 69.8622 183.257 82.6561 182.311C90.4163 181.732 91.8845 176.317 95.3976 170.481Z" fill="#425984" fill-opacity="0.05"/>
</svg>
