<svg width="395" height="575" viewBox="0 0 395 575" fill="none" xmlns="http://www.w3.org/2000/svg">
<path d="M73.77 341.014C70.8102 334.267 69.6462 326.869 70.3912 319.54C71.1362 312.21 73.7649 305.198 78.0216 299.185C82.2784 293.173 88.0185 288.363 94.6838 285.225C101.349 282.087 108.713 280.727 116.06 281.276C115.106 275.282 115.407 269.155 116.943 263.283C118.479 257.411 121.217 251.922 124.984 247.162C128.895 242.158 133.944 238.16 139.712 235.501C145.479 232.841 151.798 231.597 158.144 231.871L154.239 224.658C149.925 217.246 147.96 208.701 148.602 200.15C149.245 191.599 152.464 183.443 157.835 176.759C163.207 170.075 170.479 165.176 178.691 162.708C186.904 160.241 195.671 160.321 203.838 162.938C214.664 166.184 223.782 173.555 229.226 183.461L243.028 207.044C254.575 201.077 266 195.578 276.449 189.225C285.268 183.725 295.624 181.217 305.982 182.072C314.817 182.787 323.207 186.254 329.971 191.984C336.735 197.714 341.533 205.42 343.692 214.018C345.85 222.616 345.26 231.674 342.005 239.919C338.75 248.165 332.993 255.183 325.543 259.987C314.593 267.108 303.253 273.429 292.12 280.103L286.741 283.489C289.895 288.608 293.123 293.447 295.997 298.493C305.289 314.505 315.476 330.151 323.333 346.687C337.852 375.445 340.949 408.633 332.001 439.581C323.053 470.529 302.723 496.944 275.097 513.516C258.748 524.269 240.983 532.695 222.312 538.552C197.341 545.218 170.922 544.017 146.658 535.114C122.395 526.21 101.469 510.038 86.7354 488.803C71.0103 465.317 57.481 440.307 42.866 416.012L36.9108 405.567C33.3503 399.336 31.4138 392.31 31.2793 385.135C31.1448 377.96 32.8166 370.866 36.141 364.507C39.4654 358.147 44.3357 352.725 50.3038 348.74C56.2719 344.755 63.1462 342.335 70.2945 341.702L73.77 341.014ZM162.394 517.185C184.229 523.225 207.45 521.855 228.422 513.288C239.105 508.608 249.459 503.21 259.412 497.13C272.243 490.28 283.531 480.869 292.577 469.48C301.624 458.091 308.236 444.966 312.005 430.918C315.774 416.87 316.618 402.197 314.487 387.809C312.355 373.421 307.293 359.624 299.613 347.272C283.03 318.667 266.304 290.225 249.603 261.69L210.221 194.267C208.581 190.857 206.079 187.934 202.962 185.788C199.846 183.641 196.223 182.346 192.452 182.029C188.604 181.588 184.709 182.263 181.234 183.974C177.758 185.686 174.848 188.361 172.852 191.68C170.539 195.078 169.282 199.083 169.237 203.193C169.192 207.303 170.362 211.335 172.6 214.782L223.251 301.73L257.019 359.695C258.229 361.302 259.005 363.193 259.27 365.187C259.536 367.181 259.283 369.209 258.535 371.077C257.813 372.873 256.602 374.43 255.038 375.571C253.475 376.713 251.622 377.392 249.692 377.532C247.761 377.672 245.83 377.268 244.118 376.364C242.406 375.46 240.982 374.094 240.009 372.421C232.266 360.41 225.044 347.935 217.798 335.554L176.561 264.151C175.216 261.573 173.357 259.297 171.101 257.462C168.844 255.628 166.236 254.274 163.438 253.484C160.639 252.693 157.708 252.483 154.826 252.865C151.943 253.248 149.168 254.215 146.673 255.708C144.177 257.201 142.013 259.188 140.313 261.548C138.612 263.907 137.412 266.589 136.785 269.429C136.159 272.268 136.119 275.206 136.668 278.062C137.217 280.918 138.344 283.631 139.979 286.036L200.617 389.777C201.445 391.192 202.367 392.631 203.077 394.115C204.433 396.536 204.799 399.387 204.097 402.071C203.395 404.755 201.68 407.063 199.312 408.509C196.903 409.915 194.035 410.309 191.337 409.603C188.638 408.897 186.33 407.149 184.919 404.743C183.879 403.373 183.169 401.889 182.247 400.45L131.612 314.205C129.664 310.191 126.519 306.88 122.609 304.73C118.7 302.581 114.219 301.698 109.786 302.204C106.158 302.519 102.674 303.77 99.6733 305.835C96.6729 307.899 94.2592 310.706 92.6678 313.982C91.0764 317.258 90.3616 320.891 90.5935 324.526C90.8253 328.16 91.9957 331.673 93.9904 334.72C108.962 360.706 124.238 386.671 139.421 412.613C142.182 417.329 145.06 421.977 147.678 426.856C148.76 428.694 149.203 430.839 148.939 432.955C148.674 435.072 147.716 437.041 146.215 438.556C144.98 440.17 143.268 441.353 141.323 441.937C139.377 442.522 137.297 442.478 135.377 441.812C132.599 440.461 130.276 438.326 128.696 435.671C116.703 415.857 105.251 395.884 93.5392 376.144C92.2008 373.831 90.7144 371.608 89.0893 369.487C85.7753 365.676 81.2021 363.182 76.2032 362.461C71.2044 361.74 66.1128 362.839 61.8568 365.558C57.576 368.104 54.3875 372.143 52.904 376.898C51.4205 381.653 51.7468 386.788 53.8201 391.317C55.0091 394.024 56.3851 396.781 57.8099 399.351C71.6125 422.934 85.2684 447.077 99.2176 470.1C113.227 493.527 135.94 510.455 162.394 517.185ZM276.499 264.233C288.291 257.331 301.297 250.748 313.337 242.514C315.81 241.086 317.959 239.16 319.647 236.857C321.334 234.554 322.524 231.925 323.141 229.137C323.758 226.349 323.787 223.463 323.228 220.663C322.669 217.863 321.533 215.21 319.893 212.873C318.354 210.54 316.37 208.533 314.055 206.967C311.74 205.402 309.138 204.308 306.4 203.75C303.661 203.191 300.839 203.178 298.095 203.711C295.352 204.244 292.74 205.314 290.41 206.857C279.375 213.158 268.503 219.6 257.537 226.018C256.753 226.509 256.031 227.091 255.386 227.752L276.499 264.233Z" fill="#425984" fill-opacity="0.05"/>
<path d="M284.382 56.5932C292.65 51.5745 302.118 48.8769 311.789 48.7844C320.621 49.106 329.112 52.2755 335.994 57.8196C342.877 63.3637 347.782 70.985 349.977 79.5458C352.587 87.9628 352.294 97.0127 349.145 105.243C345.996 113.474 340.173 120.408 332.611 124.933C316.286 135.042 299.547 144.443 283.014 154.198C276.976 157.811 271.223 161.099 264.856 164.826C263.547 165.832 262.026 166.525 260.409 166.852C258.791 167.179 257.12 167.132 255.524 166.715C253.928 166.297 252.448 165.52 251.198 164.442C249.948 163.365 248.961 162.016 248.313 160.498C235.338 138.33 222.128 116.3 209.625 93.8561C204.566 84.3186 203.4 73.1917 206.372 62.8125C209.343 52.4334 216.221 43.6096 225.561 38.1945C234.901 32.7794 245.975 31.1943 256.459 33.7721C266.943 36.3499 276.02 42.8901 281.784 52.019L284.382 56.5932ZM261.961 142.299C267.223 138.982 271.943 135.824 276.802 132.901C291.094 124.457 305.711 116.298 319.796 107.5C322.011 106.133 323.934 104.342 325.457 102.231C326.979 100.12 328.07 97.7294 328.668 95.1962C329.266 92.663 329.358 90.0369 328.94 87.4678C328.523 84.8988 327.602 82.4374 326.233 80.2243C323.522 75.6489 319.116 72.3275 313.971 70.9816C308.826 69.6356 303.358 70.3737 298.754 73.0355C294.347 75.3776 290.122 78.1669 285.808 80.5334C284.562 81.3908 283.146 81.9696 281.656 82.2306C280.166 82.4915 278.638 82.4284 277.174 82.0456C275.711 81.6628 274.347 80.9692 273.176 80.0121C272.005 79.0549 271.053 77.8567 270.387 76.4989C267.992 72.6767 265.832 68.7165 263.486 64.7074C262.248 62.3088 260.546 60.1799 258.479 58.4442C256.412 56.7086 254.02 55.4008 251.444 54.5966C248.867 53.7925 246.157 53.5081 243.469 53.7599C240.782 54.0117 238.171 54.7947 235.789 56.0635C233.406 57.3633 231.313 59.1371 229.641 61.2755C227.969 63.414 226.752 65.8721 226.065 68.4985C225.377 71.1248 225.235 73.864 225.646 76.5475C226.057 79.231 227.012 81.8021 228.454 84.1026C238.926 103.619 250.436 122.608 262.237 142.771L261.961 142.299Z" fill="#425984" fill-opacity="0.05"/>
</svg>
