<svg width="445" height="396" viewBox="0 0 445 396" fill="none" xmlns="http://www.w3.org/2000/svg">
<path d="M191.141 127.396L179.931 199.395C196.567 192.269 214.958 189.693 233.044 191.957C251.13 194.221 268.198 201.234 282.338 212.213C287.483 207.932 292.522 203.477 297.623 199.626C312.118 188.747 329.172 181.389 347.317 178.186C365.461 174.982 384.151 176.03 401.776 181.238C415.521 185.39 427.315 193.98 435.126 205.527C442.936 217.075 446.273 230.856 444.562 244.496C443.972 248.328 443.162 252.127 442.134 255.875C433.538 286.437 424.943 316.999 416.347 347.561C412.597 362.854 402.788 376.175 388.968 384.738C379.084 390.641 367.756 393.99 356.101 394.455C298.761 397.823 241.271 390.791 186.684 373.733C126.302 355.847 70.837 325.422 24.2856 284.653C18.1793 279.779 12.621 274.315 7.70017 268.347C3.33663 262.645 0.769948 255.875 0.301046 248.833C-0.167857 241.79 1.48046 234.766 5.05272 228.585C9.88636 218.976 14.0175 209.061 17.4167 198.911C23.6528 181.053 32.6195 164.169 44.0274 148.803C67.3887 113.921 95.6172 82.2237 127.938 54.5827C147.918 37.743 169.904 23.1955 193.445 11.2389C205.402 5.10999 218.625 1.55226 232.182 0.81608C245.738 0.0799028 259.3 2.18317 271.911 6.97786C278.082 9.19953 283.727 12.5672 288.519 16.8853C297.551 25.237 305.988 34.1533 313.774 43.5747C317.639 48.1801 319.591 53.978 319.26 59.8654C318.929 65.7529 316.338 71.319 311.98 75.5048C311.279 76.1186 310.815 76.9386 310.661 77.8335C310.508 78.7284 310.673 79.6466 311.132 80.4411C313.57 85.8384 313.874 91.8941 311.988 97.4885C310.102 103.083 306.154 107.837 300.873 110.873C285.708 119.736 270.154 128.059 255.033 136.492C251.924 138.071 248.514 139.042 245.004 139.347C241.495 139.652 237.957 139.285 234.598 138.268L191.343 127.226L191.141 127.396ZM294.244 87.4659L289.895 89.7418C282.529 93.6767 275.375 97.96 267.817 101.478C262.725 103.784 257.005 104.524 251.452 103.594C245.898 102.665 240.786 100.112 236.824 96.2899C232.521 92.3131 229.689 87.1135 228.754 81.4723C227.819 75.8311 228.83 70.0532 231.637 65.0067C236.354 57.7483 243.352 52.0911 251.638 48.8392C252.682 48.2138 253.85 47.8004 255.069 47.6251C256.289 47.4498 257.533 47.5162 258.724 47.8203C259.915 48.1244 261.028 48.6595 261.992 49.3922C262.956 50.1248 263.75 51.0392 264.326 52.0781C265.432 54.1216 265.657 56.496 264.952 58.6949C264.247 60.8938 262.668 62.7433 260.552 63.8491C257.843 65.5131 254.976 66.9159 252.214 68.4929C250.885 69.0262 249.691 69.8253 248.713 70.8363C247.735 71.8472 246.997 73.0464 246.548 74.3527C246.099 75.6589 245.95 77.0418 246.111 78.4078C246.271 79.7738 246.738 81.0909 247.479 82.2702C248.22 83.4496 249.219 84.4635 250.407 85.2434C251.595 86.0234 252.945 86.5511 254.365 86.791C255.786 87.0309 257.244 86.9773 258.641 86.6339C260.038 86.2905 261.342 85.6652 262.463 84.8005C273.407 78.8589 284.339 72.8655 295.26 66.8201C296.718 66.2644 298 65.359 298.982 64.1918C299.964 63.0245 300.613 61.6352 300.865 60.1586C301.117 58.6821 300.964 57.1685 300.42 55.765C299.877 54.3614 298.962 53.1156 297.764 52.1485C292.579 46.4084 287.321 40.6498 281.953 35.0101C276.694 28.973 269.79 24.4342 261.999 21.8929C251.506 18.6199 240.402 17.5128 229.425 18.6453C218.448 19.7778 207.85 23.1238 198.336 28.4609C172.558 42.3348 148.72 59.2499 127.384 78.8059C99.6641 104.879 75.2306 133.943 54.5788 165.409C46.7604 176.162 40.5909 187.922 36.2563 200.334C32.2307 213.52 27.0191 226.35 20.6795 238.683C18.6513 242.577 18.0647 247.01 19.0151 251.261C19.9655 255.513 22.3971 259.334 25.9147 262.102C66.7893 300.742 115.814 330.67 169.743 349.902C198.153 359.915 227.476 367.4 257.335 372.262C290.337 377.756 323.929 379.308 357.334 376.883C363.045 376.443 368.64 375.111 373.897 372.94C380.417 370.241 386.156 366.08 390.624 360.813C395.092 355.545 398.158 349.326 399.559 342.687C408.194 311.987 416.828 281.288 425.463 250.588C426.162 248.011 426.715 245.401 427.122 242.768C428.45 233.439 426.44 223.956 421.416 215.849C416.392 207.742 408.648 201.484 399.432 198.085C387.778 194.176 375.429 192.493 363.091 193.133C350.753 193.772 338.669 196.722 327.529 201.813C315.667 207.001 305.035 214.429 296.275 223.647C298.963 227.277 301.401 230.697 304.041 233.947C309.841 240.801 307.012 246.189 303.134 248.437C299.256 250.686 293.339 249.47 289.16 243.177C282.521 233.306 273.603 225.01 263.085 218.924C252.568 212.838 240.729 209.122 228.474 208.06C216.219 206.998 203.871 208.619 192.373 212.798C180.876 216.977 170.533 223.604 162.135 232.172C157.024 237.526 150.832 241.842 143.928 244.861C137.025 247.88 129.552 249.54 121.959 249.741C120.832 249.798 119.704 249.642 118.641 249.283C117.577 248.924 116.598 248.368 115.76 247.649C114.922 246.929 114.241 246.058 113.756 245.087C113.271 244.117 112.992 243.064 112.935 241.99C112.695 239.848 113.344 237.701 114.744 236.008C116.144 234.316 118.184 233.213 120.427 232.935C123.187 232.462 125.995 232.369 128.525 231.616C137.09 229.577 144.818 225.139 150.711 218.877C156.604 212.614 160.393 204.813 161.588 196.479C165.069 180.806 167.214 164.938 169.739 149.094C170.824 136.459 173.624 124.01 178.069 112.06C180.844 104.723 186.108 98.4776 193.028 94.3114C194.939 93.1478 197.246 92.7249 199.474 93.1295C201.702 93.534 203.683 94.7353 205.011 96.487C206.384 98.207 206.993 100.371 206.708 102.515C206.423 104.658 205.266 106.609 203.487 107.949L200.339 110.9C213.965 114.378 226.797 117.653 239.63 120.929C242.284 121.639 245.123 121.364 247.573 120.16C262.174 112.477 276.564 104.447 290.954 96.4161C292.491 95.4191 293.651 93.9768 294.261 92.303C294.871 90.6291 294.898 88.8126 294.34 87.1225L294.244 87.4659Z" fill="#344C44" fill-opacity="0.05"/>
</svg>
