<svg width="728" height="1013" viewBox="0 0 728 1013" fill="none" xmlns="http://www.w3.org/2000/svg">
<path d="M93.1671 202.514C93.6509 208.881 92.7655 215.277 90.5705 221.273C88.3756 227.269 84.922 232.725 80.4421 237.275C72.8185 245.825 63.4478 252.639 52.9635 257.256C42.4792 261.873 31.1258 264.184 19.6711 264.034C6.14793 264.796 6.13704 265.443 5.7469 270.536C3.46845 299.65 -29.7291 332.011 -66.6485 341.285C-80.9026 344.775 -80.9708 351.091 -77.3026 368.316C-75.1546 375.439 -74.6692 382.96 -75.8838 390.299C-76.8655 394.043 -79.066 397.352 -82.1378 399.706C-85.2097 402.059 -88.9779 403.322 -92.8476 403.296C-96.3497 403.376 -99.8442 402.933 -103.215 401.98C-109.195 400.546 -114.797 397.842 -119.639 394.05C-124.481 390.258 -128.449 385.468 -131.274 380.005C-137.96 367.053 -145.803 354.731 -154.707 343.19C-162.874 361.585 -169.693 380.549 -175.109 399.933C-177.992 410.693 -180.117 421.656 -182.051 432.508C-165.069 429.749 -134.353 427.259 -118.265 436.93C-102.774 449.388 -89.1294 463.981 -77.7399 480.274C-66.9454 494.699 -54.3926 507.72 -40.3726 519.036C-35.7364 521.663 -30.9315 523.982 -25.9895 525.976C-8.64586 533.384 15.1629 543.337 9.11964 576.802C6.41908 589.813 2.3138 602.491 -3.12398 614.615C-8.10904 623.706 -10.3704 634.039 -9.63775 644.381C-9.02666 647.191 -9.04115 650.102 -9.68025 652.906C-10.3193 655.71 -11.5674 658.339 -13.3359 660.607C-18.8924 667.402 -28.1803 667.512 -37.9633 667.652C-43.5802 667.468 -49.1963 668.039 -54.661 669.35C-55.4187 669.147 -63.7625 674.221 -81.9607 722.133C-88.6114 739.68 -94.1499 756.713 -97.3252 766.744C-49.5038 825.894 13.7694 870.638 85.4745 896.013C157.18 921.389 234.513 926.403 308.894 910.499C383.276 894.596 451.797 858.397 506.856 805.918C561.915 753.439 601.359 686.733 620.812 613.2C628.978 582.124 633.55 550.214 634.438 518.095C626.364 525.19 618.908 531.801 613.03 537.373C593.584 555.389 582.606 565.442 571.998 562.599L570.786 562.275C561.541 559.798 558.514 547.454 556.088 531.049C553.753 514.902 548.005 499.439 539.227 485.688C530.448 471.937 518.841 460.214 505.177 451.299C504.771 452.815 505.123 454.533 505.171 456.171C506.131 464.789 504.911 473.51 501.624 481.533C497.369 490.139 482.532 498.833 457.429 507.049C441.807 512.714 425.466 516.154 408.886 517.269C398.426 516.903 396.046 504.571 394.403 500.395C392.576 491.026 391.261 481.564 390.466 472.052C389.412 447.111 383.761 422.579 373.796 399.691C362.749 376.589 345.503 357.01 323.979 343.137C323.121 342.715 322.355 342.129 321.724 341.411C321.094 340.693 320.61 339.858 320.302 338.953C319.994 338.049 319.867 337.092 319.928 336.139C319.99 335.185 320.239 334.253 320.66 333.395C321.082 332.538 321.669 331.772 322.386 331.141C323.104 330.51 323.939 330.027 324.844 329.719C325.748 329.411 326.705 329.284 327.659 329.345C328.612 329.407 329.544 329.655 330.402 330.077C354.992 344.966 374.683 366.73 387.044 392.683C397.984 417.295 404.175 443.753 405.293 470.665C405.861 481.547 407.776 492.318 410.995 502.729C425.374 501.211 439.527 498.026 453.17 493.239C478.315 484.871 487.53 477.757 488.756 474.999C490.812 469.143 491.541 462.902 490.89 456.73C490.637 449.19 490.302 441.953 495.925 437.938C497.475 436.755 499.293 435.975 501.218 435.669C503.143 435.362 505.114 435.539 506.954 436.182C522.108 440.243 563.543 474.735 571.189 529.248C573.334 544.278 575.634 547.818 576.381 548.668C586.185 542.829 595.078 535.58 602.774 527.153C611.353 519.381 622.098 509.591 634.642 499.146C633.263 416.086 606.912 335.365 559.019 267.489C511.126 199.614 443.91 147.728 366.118 118.584C352.115 132.049 299.393 180.295 272.214 182.92C263.906 183.617 252.212 184.22 239.306 184.498C214.817 185.57 173.612 187.198 166.358 193.051C150.625 208.618 138.914 227.778 132.233 248.878C132.855 262.965 134.528 276.987 137.236 290.825C138.682 300.449 140.98 309.925 144.105 319.141C154.561 303.276 170.284 291.612 188.501 286.207C211.067 280.99 234.764 284.275 255.06 295.433C256.472 296.523 257.441 298.088 257.788 299.838C258.134 301.588 257.835 303.404 256.945 304.95C256.055 306.496 254.635 307.667 252.947 308.245C251.26 308.824 249.42 308.772 247.769 308.098C230.783 298.889 211.039 296.137 192.183 300.351C176.195 305.415 162.68 316.28 154.298 330.806C168.318 337.619 183.712 341.133 199.3 341.078C202.985 340.57 206.737 341.195 210.06 342.868C213.382 344.542 216.118 347.185 217.904 350.448L223.589 329.232L325.58 356.56L312.586 405.055C325.033 416.187 329.924 442.186 334.771 470.772C336.508 480.658 338.426 491.08 340.587 500.593C355.549 512.549 367.306 528.034 374.804 545.658C387.257 551.918 399.034 557.673 399.991 568.649C400.437 576.078 395.931 583.804 384.561 592.29C384.763 597.66 384.571 603.037 383.986 608.378L368.074 604.115C330.76 630.013 322.855 640.726 317.742 682.237C317.742 682.237 317.742 682.237 317.498 683.146C315.775 688.958 312.798 694.321 308.776 698.856C304.754 703.392 299.786 706.989 294.222 709.395C288.219 711.907 283.146 716.224 279.705 721.748C274.327 732.173 265.518 740.426 254.765 745.114C248.768 748.028 243.419 752.119 239.035 757.142C231.514 767.418 222.555 776.559 212.433 784.286C206.759 789.219 200.024 792.779 192.752 794.69C185.48 796.6 177.865 796.81 170.499 795.302C153.071 790.632 142.73 767.395 140.262 726.29C138.881 707.039 139.117 687.705 140.968 668.493L133.088 666.381L152.173 595.155C152.173 595.155 151.629 593.547 151.185 592.778C150.898 592.181 150.741 591.53 150.723 590.868C149.849 581.943 152.244 573.004 157.463 565.711C161.818 557.945 163.946 553.642 157.627 546.914C146.53 543.476 135.848 538.816 125.779 533.02C122.05 532.995 118.32 532.97 114.358 533.208C105.284 534.804 95.9583 534.187 87.1733 531.409C78.3884 528.631 70.4034 523.774 63.8964 517.251C52.8647 507.542 43.9844 495.634 37.8253 482.292C31.6663 468.949 28.3646 454.467 28.1319 439.773C29.0348 429.775 32.1626 420.106 37.286 411.474C42.4095 402.842 49.399 395.465 57.7425 389.883C99.7298 359.877 123.352 340.219 133.539 331.903C127.962 320.247 124.341 307.753 122.82 294.921C120.044 279.738 118.407 264.369 117.923 248.942C118.043 232.731 144.419 191.883 157.762 181.489C168.06 173.366 196.784 171.642 239.172 169.843C251.472 169.403 262.973 168.912 270.827 168.092C287.484 166.546 324.944 136.464 350.449 113.411C343.024 111.422 335.62 108.138 328.345 106.189C235.963 81.0629 137.641 89.8028 51.1399 130.83C65.7064 144.966 91.1399 173.709 93.1671 202.514ZM285.2 327.223C283.072 326.653 281.16 325.465 279.708 323.808C278.255 322.152 277.326 320.102 277.039 317.918C276.751 315.733 277.118 313.513 278.092 311.537C279.067 309.561 280.605 307.918 282.513 306.817C284.421 305.715 286.613 305.204 288.811 305.348C291.01 305.492 293.116 306.285 294.864 307.626C296.612 308.967 297.923 310.797 298.631 312.883C299.339 314.969 299.413 317.219 298.843 319.347C298.461 320.773 297.799 322.108 296.897 323.276C295.994 324.444 294.868 325.421 293.585 326.15C292.301 326.88 290.885 327.346 289.42 327.524C287.955 327.701 286.468 327.585 285.048 327.183L285.2 327.223ZM351.224 707.613C357.99 703.218 364.187 698.005 369.676 692.092C375.64 686.352 381.959 680.993 388.594 676.046C392.816 673.007 397.834 671.268 403.031 671.045C408.228 670.821 413.377 672.122 417.844 674.787C422.263 677.498 425.813 681.417 428.075 686.082C430.336 690.746 431.215 695.961 430.607 701.109C428.252 718.897 420.999 735.68 409.659 749.584C378.777 789.063 353.279 813.904 329.184 807.448C324.94 806.311 317.699 802.421 316.401 789.079C314.357 765.792 333.264 716.445 351.224 707.613Z" fill="#486F7A" fill-opacity="0.05"/>
<path d="M333.113 793.394C350.995 798.186 377.5 767.767 398.695 740.799C408.303 728.964 414.479 714.719 416.552 699.617C416.863 697.223 416.459 694.792 415.392 692.627C414.324 690.462 412.641 688.662 410.553 687.452C409.486 687.007 408.365 686.707 407.219 686.558C405.489 686.124 403.685 686.078 401.935 686.424C400.186 686.769 398.535 687.498 397.1 688.557C390.896 693.349 384.965 698.484 379.335 703.938C372.805 710.625 365.457 716.46 357.464 721.305C346.988 726.457 328.747 767.861 331.108 788.147C331.549 791.351 332.507 793.232 333.113 793.394Z" fill="#486F7A" fill-opacity="0.05"/>
<path d="M288.823 313.096C287.899 312.848 286.914 312.978 286.085 313.457C285.256 313.935 284.652 314.723 284.404 315.648C284.156 316.572 284.286 317.557 284.764 318.386C285.243 319.215 286.031 319.819 286.956 320.067C287.88 320.315 288.865 320.185 289.694 319.707C290.523 319.228 291.127 318.44 291.375 317.516C291.623 316.591 291.493 315.606 291.015 314.777C290.536 313.949 289.748 313.344 288.823 313.096Z" fill="#486F7A" fill-opacity="0.05"/>
<path d="M381.045 566.013C381.719 568.954 382.281 571.704 382.803 574.605C384.034 573.351 384.902 571.788 385.315 570.08C384.842 568.817 383.418 567.461 381.045 566.013Z" fill="#486F7A" fill-opacity="0.05"/>
<path d="M42.198 440.621C42.5533 453.164 45.4943 465.498 50.8369 476.851C56.1795 488.205 63.8086 498.333 73.2465 506.602C77.3245 510.948 82.3499 514.294 87.9319 516.381C93.5138 518.469 99.502 519.24 105.431 518.637C91.5972 505.634 81.338 489.293 75.638 471.183C69.938 453.073 68.9886 433.802 72.8808 415.22L191.087 446.893L209.157 379.455C206.953 373.987 205.761 368.164 205.64 362.27C205.124 354.498 205.124 354.498 198.808 354.43C179.746 354.469 160.967 349.828 144.118 340.913C135.165 348.259 110.664 368.17 65.6212 401.093C59.0183 405.52 53.4882 411.367 49.4356 418.206C45.3829 425.045 42.9101 432.703 42.198 440.621Z" fill="#486F7A" fill-opacity="0.05"/>
<path d="M-59.2921 655.11C-52.509 653.443 -45.5338 652.69 -38.5513 652.871C-33.8316 652.836 -26.1404 652.623 -24.936 651.159C-23.7316 649.695 -24.4894 649.492 -24.6677 646.52C-26.0088 633.511 -23.4012 620.4 -17.1844 608.893C-12.3773 597.539 -8.7235 585.73 -6.27795 573.646C-2.24117 553.124 -12.3513 547.817 -32.0385 539.455C-37.6061 537.121 -43.0146 534.424 -48.2292 531.381C-63.7416 519.009 -77.3456 504.418 -88.6027 488.078C-99.1545 473.471 -111.486 460.236 -125.312 448.68C-137.73 443.754 -151.246 442.265 -164.439 444.368C-172.403 444.995 -179.348 446.058 -184.462 446.962C-200.129 554.484 -172.835 663.852 -108.484 751.405C-105.804 741.403 -100.715 728.472 -95.6963 715.199C-77.0217 666.115 -66.8238 657.152 -59.2921 655.11Z" fill="#486F7A" fill-opacity="0.05"/>
<path d="M-117.783 374.521C-115.289 378.66 -111.801 382.111 -107.635 384.56C-103.47 387.009 -98.7586 388.38 -93.9291 388.547C-90.8061 388.409 -90.4813 387.197 -90.2782 386.439C-89.7923 381.383 -90.3012 376.28 -91.7762 371.42C-94.7004 357.479 -99.6752 334.219 -70.439 326.947C-41.2028 319.675 -10.7904 292.253 -9.03481 269.334C-7.61785 250.709 7.04736 249.928 18.7411 249.326C28.4103 249.667 38.0364 247.879 46.9387 244.09C55.841 240.301 63.8021 234.602 70.2591 227.396C73.3305 224.28 75.694 220.538 77.1883 216.426C78.6826 212.313 79.2727 207.927 78.9184 203.566C77.3023 177.469 49.8066 149.149 38.0056 138.028C-43.2163 178.982 -108.636 245.619 -148.087 327.582C-136.511 342.225 -126.363 357.944 -117.783 374.521Z" fill="#486F7A" fill-opacity="0.05"/>
<path d="M307.33 423.458L293.443 475.287C303.807 478.867 313.777 483.498 323.199 489.107L320.489 473.763C318.133 456.528 313.715 439.638 307.33 423.458Z" fill="#486F7A" fill-opacity="0.05"/>
<path d="M265.893 576.891L234.098 695.552L155.124 673.254C153.634 690.786 153.528 708.409 154.808 725.958C156.992 759.028 164.527 779.401 174.681 782.122C197.261 788.173 222.808 755.873 227.637 749.37C233.206 742.653 240.199 737.259 248.111 733.578C256.089 730.296 262.712 724.394 266.888 716.845C271.648 708.139 279.205 701.294 288.337 697.416C292.062 695.962 295.432 693.726 298.218 690.857C301.004 687.989 303.142 684.556 304.486 680.79C309.529 638.935 319.754 623.808 351.092 600.207L265.893 576.891Z" fill="#486F7A" fill-opacity="0.05"/>
</svg>
